<?xml version="1.0" encoding="UTF-8" standalone="no"?>
<!-- Created with Inkscape (http://www.inkscape.org/) -->

<svg
   xmlns:dc="http://purl.org/dc/elements/1.1/"
   xmlns:cc="http://creativecommons.org/ns#"
   xmlns:rdf="http://www.w3.org/1999/02/22-rdf-syntax-ns#"
   xmlns:svg="http://www.w3.org/2000/svg"
   xmlns="http://www.w3.org/2000/svg"
   xmlns:sodipodi="http://sodipodi.sourceforge.net/DTD/sodipodi-0.dtd"
   xmlns:inkscape="http://www.inkscape.org/namespaces/inkscape"
   width="600"
   height="880"
   viewBox="0 0 600.00002 880"
   id="svg8558"
   version="1.1"
   inkscape:version="0.91 r13725"
   sodipodi:docname="card-back.svg">
  <defs
     id="defs8560" />
  <sodipodi:namedview
     id="base"
     pagecolor="#ffffff"
     bordercolor="#666666"
     borderopacity="1.0"
     inkscape:pageopacity="0.0"
     inkscape:pageshadow="2"
     inkscape:zoom="0.35"
     inkscape:cx="375"
     inkscape:cy="520"
     inkscape:document-units="px"
     inkscape:current-layer="layer1"
     showgrid="false"
     units="px"
     inkscape:window-width="1920"
     inkscape:window-height="1017"
     inkscape:window-x="1672"
     inkscape:window-y="-8"
     inkscape:window-maximized="1" />
  <metadata
     id="metadata8563">
    <rdf:RDF>
      <cc:Work
         rdf:about="">
        <dc:format>image/svg+xml</dc:format>
        <dc:type
           rdf:resource="http://purl.org/dc/dcmitype/StillImage" />
        <dc:title />
      </cc:Work>
    </rdf:RDF>
  </metadata>
  <g
     inkscape:label="Layer 1"
     inkscape:groupmode="layer"
     id="layer1"
     transform="translate(0,-172.36222)">
    <path
       inkscape:connector-curvature="0"
       style="fill:#ffffff;stroke:#000000;stroke-width:0.5"
       d="m 6496,898.6272 c 0,13.59 -11.078,24.735 -24.663,24.735 l -548.707,0 c -13.552,0 -24.63,-11.144 -24.63,-24.735 l 0,-822.526995 c 0,-13.608 11.078,-24.738 24.63,-24.738 l 548.707,0 c 13.585,0 24.663,11.13 24.663,24.738 l 0,822.526995 z"
       id="path8062-6" />
    <g
       id="g3825"
       transform="translate(2.8571429,-1.4285706e-7)">
      <path
         style="fill:#fb0f0c;stroke:#fb0f0c;stroke-width:0.5"
         inkscape:connector-curvature="0"
         id="path8064"
         d="m 100.0377,293.59235 372.046,0 c 2.922,0 31.03,-1.34 31.03,1.058 l 0,629.445 c 0,0.92 0.626,5.125 -0.512,5.125 l -400.121,0 c -5.256,0 -2.443,-14.623 -2.443,-18.807 l 0,-616.822" />
      <path
         style="fill:#ffffff;stroke:#ffffff;stroke-width:0.5"
         inkscape:connector-curvature="0"
         id="path8066"
         d="m 222.2857,522.50335 c 16.045,0 158,-1.13 158,1.117 l 0,180.71 c 0,1.812 -158,0.218 -158,0.675 l 0,-182.503" />
      <path
         style="fill:#ffffff;stroke:#ffffff;stroke-width:0.5"
         inkscape:connector-curvature="0"
         id="path8068"
         d="m 300.7857,505.21935 c -15.582,18 -31.166,36 -46.75,54 -10.507,12.14 -21.015,24.275 -31.524,36.413 -2.44,2.817 -15.226,13.672 -15.226,17.587 0,3.598 11.764,13.587 14.003,16.174 10.916,12.61 21.832,25.215 32.747,37.826 15.584,18 31.168,35.998 46.75,54 15.582,-18.002 31.164,-36 46.75,-54 10.507,-12.14 21.015,-24.277 31.522,-36.413 2.44,-2.82 15.228,-13.672 15.228,-17.588 0,-3.6 -11.764,-13.587 -14.003,-16.174 -10.914,-12.61 -21.832,-25.216 -32.747,-37.826 -15.586,-18 -31.168,-36 -46.75,-54" />
      <path
         style="fill:#fb0f0c;stroke:#fb0f0c;stroke-width:0.5"
         inkscape:connector-curvature="0"
         id="path8070"
         d="m 228.6907,530.21935 136.985,0 c 8.262,0 6.44,0.708 6.44,9.048 l 0,152.687 c 0,7.567 -4.365,4.753 -11.566,4.753 l -128.367,0 c -5.65,0 -3.492,-3.68 -3.492,-9.047 l 0,-157.441" />
      <path
         style="fill:#fb0f0c;stroke:#fb0f0c;stroke-width:0.5"
         inkscape:connector-curvature="0"
         id="path8072"
         d="m 300.7857,514.21935 -42.427,48.805 -30.248,34.792 c -2.212,2.547 -13.825,12.363 -13.825,15.903 0,3.226 10.59,12.18 12.604,14.498 l 29.826,34.308 44.07,50.694 c 14.144,-16.27 28.288,-32.537 42.427,-48.803 10.085,-11.598 20.17,-23.195 30.25,-34.793 2.213,-2.546 13.823,-12.364 13.823,-15.904 0,-3.226 -10.587,-12.18 -12.603,-14.498 -9.943,-11.436 -19.883,-22.872 -29.823,-34.308 -14.693,-16.898 -29.385,-33.796 -44.073,-50.694" />
      <path
         style="fill:#ffffff;stroke:#ffffff;stroke-width:0.5"
         inkscape:connector-curvature="0"
         id="path8074"
         d="m 243.2857,546.94535 93.628,0 c 3.896,0 21.352,-2.63 21.352,2.124 l 0,42.164 c 0,6.183 0.077,88.275 -0.07,88.275 l -95.518,0 c -3.8,0 -19.392,2.593 -19.392,-2.13 l 0,-130.431" />
      <path
         style="fill:#ffffff;stroke:#ffffff;stroke-width:0.5"
         inkscape:connector-curvature="0"
         id="path8076"
         d="m 301.2857,530.21935 -36,41.5 -24.13,27.817 c -1.9,2.19 -11.87,10.638 -11.87,13.682 0,2.73 8.94,10.31 10.642,12.268 8.453,9.745 16.906,19.49 25.36,29.23 12,13.835 24,27.67 36,41.502 12,-13.832 24,-27.667 35.997,-41.502 8.044,-9.27 16.09,-18.54 24.128,-27.815 1.905,-2.19 11.872,-10.64 11.872,-13.684 0,-2.73 -8.94,-10.307 -10.642,-12.268 l -25.36,-29.232 c -11.997,-13.833 -23.996,-27.667 -35.997,-41.5" />
      <path
         style="fill:#fb0f0c;stroke:#fb0f0c;stroke-width:0.5"
         inkscape:connector-curvature="0"
         id="path8078"
         d="m 250.2857,555.21935 92.122,0 c 11.088,0 8.65,0.98 8.65,12.068 l 0,101.559 c 0,5.358 -18.843,2.413 -23.24,2.413 l -58.414,0 c -6.793,0 -19.118,3.96 -19.118,-4.2 l 0,-111.84" />
      <path
         style="fill:#fb0f0c;stroke:#fb0f0c;stroke-width:0.5"
         inkscape:connector-curvature="0"
         id="path8080"
         d="m 300.7857,539.21935 c -10.475,12.183 -20.953,24.365 -31.43,36.548 -7.56,8.79 -15.12,17.584 -22.684,26.375 -1.66,1.932 -10.386,9.39 -10.386,12.077 0,2.373 7.708,8.962 9.17,10.665 7.422,8.627 14.84,17.254 22.26,25.88 11.024,12.82 22.047,25.64 33.07,38.455 10.477,-12.18 20.954,-24.365 31.432,-36.546 l 22.682,-26.375 c 1.66,-1.933 10.386,-9.394 10.386,-12.08 0,-2.37 -7.708,-8.962 -9.17,-10.663 -7.42,-8.63 -14.84,-17.256 -22.262,-25.883 l -33.068,-38.453" />
      <path
         style="fill:#ffffff;stroke:#ffffff;stroke-width:0.5"
         inkscape:connector-curvature="0"
         id="path8082"
         d="m 300.7877,547.21935 c -9.312,10.77 -18.624,21.54 -27.937,32.308 -6.55,7.575 -13.098,15.15 -19.648,22.722 -1.587,1.836 -9.917,8.92 -9.917,11.468 0,2.233 7.295,8.437 8.682,10.04 6.42,7.424 12.837,14.845 19.255,22.272 9.856,11.394 19.71,22.792 29.565,34.19 9.312,-10.772 18.623,-21.54 27.94,-32.312 6.543,-7.57 13.095,-15.147 19.643,-22.718 1.59,-1.84 9.915,-8.92 9.915,-11.472 0,-2.23 -7.295,-8.436 -8.677,-10.038 -6.418,-7.424 -12.84,-14.846 -19.258,-22.27 -9.852,-11.396 -19.708,-22.792 -29.563,-34.19" />
      <path
         style="fill:#ffffff;stroke:#ffffff;stroke-width:0.5"
         inkscape:connector-curvature="0"
         id="path8084"
         d="m 257.4157,564.21935 85.998,0 c 0.752,0 0.373,81.3 0.373,89.054 0,1.57 1.124,9.11 0,10.337 -1.257,1.37 -11.723,0 -13.493,0 l -72.504,0 c -0.84,0 -0.374,-7.876 -0.374,-8.794 l 0,-90.597" />
      <path
         style="fill:#fb0f0c"
         inkscape:connector-curvature="0"
         id="path8086"
         d="m 300.2857,564.21935 c -7.166,8.335 -14.332,16.667 -21.5,25 -4.926,5.73 -9.853,11.458 -14.78,17.19 -1.07,1.242 -6.72,6.08 -6.72,7.81 0,1.735 5.65,6.572 6.72,7.813 l 14.78,17.187 21.5,25 c 7.17,-8.334 14.332,-16.665 21.5,-25 4.928,-5.73 9.855,-11.458 14.78,-17.187 1.07,-1.24 6.72,-6.078 6.72,-7.813 0,-1.73 -5.65,-6.568 -6.72,-7.81 -4.925,-5.732 -9.852,-11.46 -14.78,-17.19 -7.168,-8.333 -14.33,-16.665 -21.5,-25" />
      <path
         style="fill:#ffffff;stroke:#ffffff;stroke-width:0.5"
         inkscape:connector-curvature="0"
         id="path8088"
         d="m 408.2857,514.21935 -14,0 14,17 0,-17" />
      <path
         style="fill:#ffffff;stroke:#ffffff;stroke-width:0.5"
         inkscape:connector-curvature="0"
         id="path8090"
         d="m 408.2857,539.08335 c -4.667,-5.62 -9.333,-11.243 -14,-16.864 l 0,16.393 c 0,0.99 12.196,0.47 14,0.47" />
      <path
         style="fill:#ffffff;stroke:#ffffff;stroke-width:0.5"
         inkscape:connector-curvature="0"
         id="path8092"
         d="m 193.2857,514.21935 14,0 -14,17 0,-17" />
      <path
         style="fill:#ffffff;stroke:#ffffff;stroke-width:0.5"
         inkscape:connector-curvature="0"
         id="path8094"
         d="m 193.2857,539.08335 c 4.667,-5.62 9.333,-11.243 14,-16.864 l 0,16.393 c 0,0.99 -12.194,0.47 -14,0.47" />
      <path
         style="fill:#ffffff;stroke:#ffffff;stroke-width:0.5"
         inkscape:connector-curvature="0"
         id="path8096"
         d="m 207.2857,688.21935 -14,0 c 4.667,5.668 9.333,11.336 14,17 l 0,-17" />
      <path
         style="fill:#ffffff;stroke:#ffffff;stroke-width:0.5"
         inkscape:connector-curvature="0"
         id="path8098"
         d="m 207.2857,714.08235 c -4.667,-5.622 -9.333,-11.244 -14,-16.863 l 0,16.392 c 0,0.992 12.196,0.47 14,0.47" />
      <path
         style="fill:#ffffff;stroke:#ffffff;stroke-width:0.5"
         inkscape:connector-curvature="0"
         id="path8100"
         d="m 394.2857,688.21935 14,0 c -4.667,5.668 -9.333,11.336 -14,17 l 0,-17" />
      <path
         style="fill:#ffffff;stroke:#ffffff;stroke-width:0.5"
         inkscape:connector-curvature="0"
         id="path8102"
         d="m 394.2857,714.08235 c 4.667,-5.622 9.333,-11.244 14,-16.863 l 0,16.392 c 0,0.992 -12.196,0.47 -14,0.47" />
      <path
         style="fill:#ffffff;stroke:#ffffff;stroke-width:0.5"
         inkscape:connector-curvature="0"
         id="path8104"
         d="m 207.2857,630.21935 -14,0 14,17 0,-17" />
      <path
         style="fill:#ffffff;stroke:#ffffff;stroke-width:0.5"
         inkscape:connector-curvature="0"
         id="path8106"
         d="m 207.2857,655.08235 c -4.667,-5.618 -9.333,-11.24 -14,-16.863 l 0,16.392 c 0,0.992 12.196,0.47 14,0.47" />
      <path
         style="fill:#ffffff;stroke:#ffffff;stroke-width:0.5"
         inkscape:connector-curvature="0"
         id="path8108"
         d="m 193.2857,572.21935 14,0 -14,17 0,-17" />
      <path
         style="fill:#ffffff;stroke:#ffffff;stroke-width:0.5"
         inkscape:connector-curvature="0"
         id="path8110"
         d="m 193.2857,597.08435 14,-16.865 0,16.392 c 0,0.99 -12.194,0.473 -14,0.473" />
      <path
         style="fill:#ffffff;stroke:#ffffff;stroke-width:0.5"
         inkscape:connector-curvature="0"
         id="path8112"
         d="m 408.2857,572.21935 -14,0 14,17 0,-17" />
      <path
         style="fill:#ffffff;stroke:#ffffff;stroke-width:0.5"
         inkscape:connector-curvature="0"
         id="path8114"
         d="m 408.2857,597.08435 -14,-16.865 0,16.392 c 0,0.99 12.196,0.473 14,0.473" />
      <path
         style="fill:#ffffff;stroke:#ffffff;stroke-width:0.5"
         inkscape:connector-curvature="0"
         id="path8116"
         d="m 394.2857,630.21935 14,0 -14,17 0,-17" />
      <path
         style="fill:#ffffff;stroke:#ffffff;stroke-width:0.5"
         inkscape:connector-curvature="0"
         id="path8118"
         d="m 394.2857,655.08235 c 4.667,-5.618 9.333,-11.24 14,-16.863 l 0,16.392 c 0,0.992 -12.196,0.47 -14,0.47" />
      <path
         style="fill:#fb0f0c"
         inkscape:connector-curvature="0"
         id="path8120"
         d="m 250.6977,266.21935 c -2.937,-7.337 -6.045,-14.81 -8.06,-22.477 -1.816,-6.91 -3.263,-23.776 5.845,-27.092 8.738,-3.177 11.914,12.068 11.8,18.06 -0.172,8.998 -4.41,18.19 -7.602,26.463 -0.648,1.685 -1.31,3.375 -1.983,5.047" />
      <path
         style="fill:#fb0f0c"
         inkscape:connector-curvature="0"
         id="path8122"
         d="m 251.2857,265.21935 c -7.29,-3.02 -15.41,-5.977 -21.864,-10.562 -5.728,-4.07 -14.85,-16.134 -9.528,-23.513 5.372,-7.45 16.583,1.088 20.204,6.12 5.196,7.213 7.637,17.08 10.365,25.404 0.278,0.847 0.55,1.706 0.823,2.55" />
      <path
         style="fill:#fb0f0c"
         inkscape:connector-curvature="0"
         id="path8124"
         d="m 250.2857,265.21935 c 7.292,-3.02 15.408,-5.977 21.864,-10.56 5.728,-4.07 14.85,-16.138 9.53,-23.514 -5.374,-7.45 -16.586,1.088 -20.208,6.12 -5.296,7.355 -7.777,17.47 -10.547,25.966 -0.215,0.66 -0.43,1.332 -0.64,1.988" />
      <path
         style="fill:#fb0f0c"
         inkscape:connector-curvature="0"
         id="path8126"
         d="m 232.5597,267.07735 c -5.89,-1.704 -13.184,-1.14 -16.948,4.18 -2.006,2.836 -2.462,13.825 3.923,11.688 1.112,-0.372 2.022,-5.19 3.38,-6.3 2.586,-2.115 7.432,-2.05 10.574,-2.294 4.227,-0.325 8.617,0.114 12.77,-0.446 0.01,-0.024 0.014,-0.047 0.026,-0.07 -3.937,-2.973 -8.956,-5.32 -13.726,-6.758" />
      <path
         style="fill:#fb0f0c"
         inkscape:connector-curvature="0"
         id="path8128"
         d="m 269.0127,267.07735 c 5.89,-1.705 13.185,-1.14 16.947,4.18 2.006,2.836 2.463,13.826 -3.923,11.688 -1.112,-0.372 -2.02,-5.188 -3.378,-6.3 -2.585,-2.114 -7.432,-2.05 -10.574,-2.294 -4.23,-0.325 -8.617,0.114 -12.773,-0.446 -0.01,-0.024 -0.013,-0.046 -0.025,-0.07 3.94,-2.972 8.956,-5.32 13.727,-6.758" />
      <path
         style="fill:#fb0f0c"
         inkscape:connector-curvature="0"
         id="path8130"
         d="m 245.2857,282.40735 c 0.845,7.192 13.376,3.695 7.383,-6.203 -4.21,-6.956 -6.62,-0.447 -7.383,6.203" />
      <path
         style="fill:#fb0f0c"
         inkscape:connector-curvature="0"
         id="path8132"
         d="m 351.6977,266.21935 c -2.94,-7.335 -6.047,-14.812 -8.06,-22.476 -1.816,-6.91 -3.26,-23.774 5.843,-27.092 8.74,-3.182 11.918,12.07 11.802,18.057 -0.172,9 -4.41,18.192 -7.6,26.463 -0.652,1.685 -1.312,3.373 -1.985,5.047" />
      <path
         style="fill:#fb0f0c"
         inkscape:connector-curvature="0"
         id="path8134"
         d="m 351.2857,265.21935 c -7.29,-3.02 -15.412,-5.977 -21.862,-10.562 -5.73,-4.07 -14.853,-16.136 -9.53,-23.514 5.373,-7.446 16.582,1.087 20.208,6.12 5.194,7.214 7.633,17.083 10.36,25.405 0.28,0.847 0.55,1.706 0.824,2.55" />
      <path
         style="fill:#fb0f0c"
         inkscape:connector-curvature="0"
         id="path8136"
         d="m 351.2857,265.21935 c 7.29,-3.02 15.41,-5.977 21.863,-10.562 5.733,-4.07 14.853,-16.134 9.528,-23.513 -5.37,-7.45 -16.583,1.088 -20.205,6.12 -5.3,7.356 -7.772,17.47 -10.544,25.967 -0.215,0.66 -0.428,1.33 -0.64,1.988" />
      <path
         style="fill:#fb0f0c"
         inkscape:connector-curvature="0"
         id="path8138"
         d="m 332.5577,267.07735 c -5.888,-1.706 -13.183,-1.14 -16.944,4.18 -2.008,2.837 -2.467,13.826 3.923,11.688 1.11,-0.372 2.023,-5.19 3.38,-6.3 2.584,-2.115 7.433,-2.05 10.575,-2.294 4.227,-0.325 8.617,0.114 12.77,-0.446 0,-0.024 0.014,-0.047 0.025,-0.07 -3.94,-2.973 -8.953,-5.32 -13.728,-6.758" />
      <path
         style="fill:#fb0f0c"
         inkscape:connector-curvature="0"
         id="path8140"
         d="m 370.0117,267.07735 c 5.888,-1.706 13.186,-1.14 16.95,4.18 2.003,2.836 2.46,13.825 -3.923,11.688 -1.117,-0.372 -2.025,-5.19 -3.382,-6.3 -2.583,-2.114 -7.43,-2.05 -10.573,-2.294 -4.227,-0.327 -8.616,0.114 -12.772,-0.446 0,-0.024 -0.01,-0.046 -0.025,-0.07 3.94,-2.97 8.955,-5.32 13.726,-6.758" />
      <path
         style="fill:#fb0f0c"
         inkscape:connector-curvature="0"
         id="path8142"
         d="m 346.2857,282.40735 c 0.847,7.192 13.375,3.695 7.383,-6.203 -4.208,-6.957 -6.623,-0.445 -7.383,6.203" />
      <path
         style="fill:#fb0f0c"
         inkscape:connector-curvature="0"
         id="path8144"
         d="m 451.6987,266.21935 c -2.936,-7.34 -6.046,-14.81 -8.063,-22.477 -1.813,-6.908 -3.26,-23.775 5.85,-27.092 8.736,-3.18 11.91,12.07 11.797,18.06 -0.175,9 -4.412,18.19 -7.603,26.463 -0.645,1.685 -1.31,3.375 -1.98,5.047" />
      <path
         style="fill:#fb0f0c"
         inkscape:connector-curvature="0"
         id="path8146"
         d="m 452.2857,265.21935 c -7.293,-3.02 -15.408,-5.977 -21.866,-10.562 -5.728,-4.07 -14.848,-16.136 -9.527,-23.513 5.37,-7.45 16.583,1.088 20.205,6.12 5.297,7.356 7.775,17.468 10.544,25.967 0.22,0.66 0.432,1.33 0.644,1.988" />
      <path
         style="fill:#fb0f0c"
         inkscape:connector-curvature="0"
         id="path8148"
         d="m 452.2857,265.21935 c 7.293,-3.02 15.41,-5.977 21.864,-10.562 5.73,-4.07 14.848,-16.136 9.53,-23.513 -5.373,-7.45 -16.585,1.088 -20.207,6.12 -5.296,7.356 -7.774,17.47 -10.543,25.967 -0.216,0.66 -0.432,1.332 -0.644,1.988" />
      <path
         style="fill:#fb0f0c"
         inkscape:connector-curvature="0"
         id="path8150"
         d="m 433.5627,267.07735 c -5.892,-1.706 -13.186,-1.14 -16.95,4.18 -2.008,2.838 -2.463,13.825 3.923,11.688 1.113,-0.372 2.02,-5.19 3.38,-6.3 2.586,-2.114 7.434,-2.05 10.573,-2.294 4.23,-0.325 8.616,0.114 12.772,-0.446 0.01,-0.024 0.014,-0.046 0.025,-0.07 -3.94,-2.973 -8.952,-5.32 -13.723,-6.758" />
      <path
         style="fill:#fb0f0c"
         inkscape:connector-curvature="0"
         id="path8152"
         d="m 470.0057,267.07735 c 5.896,-1.704 13.19,-1.14 16.952,4.18 2.008,2.836 2.467,13.824 -3.923,11.69 -1.11,-0.373 -2.023,-5.19 -3.38,-6.3 -2.587,-2.116 -7.433,-2.05 -10.575,-2.296 -4.227,-0.325 -8.617,0.114 -12.774,-0.446 l -0.02,-0.07 c 3.937,-2.973 8.953,-5.32 13.72,-6.758" />
      <path
         style="fill:#fb0f0c"
         inkscape:connector-curvature="0"
         id="path8154"
         d="m 447.2857,282.40735 c 0.847,7.195 13.373,3.69 7.384,-6.203 -4.212,-6.957 -6.62,-0.445 -7.384,6.203" />
      <path
         style="fill:#fb0f0c"
         inkscape:connector-curvature="0"
         id="path8156"
         d="m 149.6997,266.21935 c -2.94,-7.335 -6.047,-14.812 -8.062,-22.476 -1.817,-6.91 -3.262,-23.776 5.845,-27.092 8.74,-3.182 11.914,12.07 11.8,18.057 -0.172,9 -4.41,18.19 -7.602,26.463 -0.65,1.685 -1.312,3.373 -1.98,5.047" />
      <path
         style="fill:#fb0f0c"
         inkscape:connector-curvature="0"
         id="path8158"
         d="m 150.2857,265.21935 c -7.293,-3.02 -15.408,-5.977 -21.864,-10.562 -5.728,-4.07 -14.85,-16.134 -9.53,-23.513 5.374,-7.45 16.586,1.088 20.208,6.12 5.194,7.213 7.637,17.082 10.363,25.404 0.278,0.847 0.55,1.706 0.823,2.55" />
      <path
         style="fill:#fb0f0c"
         inkscape:connector-curvature="0"
         id="path8160"
         d="m 150.2857,265.21935 c 7.29,-3.02 15.41,-5.977 21.864,-10.562 5.728,-4.07 14.85,-16.134 9.528,-23.513 -5.374,-7.45 -16.583,1.088 -20.206,6.12 -5.194,7.213 -7.635,17.082 -10.363,25.404 -0.278,0.847 -0.55,1.704 -0.823,2.55" />
      <path
         style="fill:#fb0f0c"
         inkscape:connector-curvature="0"
         id="path8162"
         d="m 131.5587,267.07735 c -5.89,-1.706 -13.185,-1.14 -16.947,4.18 -2.006,2.836 -2.463,13.826 3.923,11.688 1.11,-0.372 2.02,-5.19 3.378,-6.3 2.585,-2.115 7.432,-2.05 10.574,-2.294 4.23,-0.325 8.62,0.114 12.773,-0.446 0,-0.024 0.013,-0.047 0.025,-0.07 -3.94,-2.97 -8.956,-5.32 -13.727,-6.758" />
      <path
         style="fill:#fb0f0c"
         inkscape:connector-curvature="0"
         id="path8164"
         d="m 168.0097,267.07735 c 5.89,-1.704 13.186,-1.14 16.95,4.18 2.006,2.836 2.463,13.825 -3.923,11.688 -1.112,-0.372 -2.023,-5.19 -3.38,-6.3 -2.585,-2.115 -7.432,-2.05 -10.574,-2.294 -4.227,-0.325 -8.617,0.114 -12.77,-0.446 -0.01,-0.024 -0.015,-0.047 -0.026,-0.07 3.94,-2.973 8.954,-5.318 13.724,-6.758" />
      <path
         style="fill:#fb0f0c"
         inkscape:connector-curvature="0"
         id="path8166"
         d="m 145.2857,282.40735 c 0.847,7.192 13.374,3.695 7.384,-6.203 -4.21,-6.956 -6.622,-0.446 -7.384,6.203" />
      <path
         style="fill:#fb0f0c"
         inkscape:connector-curvature="0"
         id="path8168"
         d="m 249.6987,957.21935 c -2.937,7.337 -6.046,14.812 -8.06,22.475 -1.816,6.905 -3.265,23.78005 5.845,27.09405 8.74,3.177 11.913,-12.07005 11.8,-18.06005 -0.173,-9.003 -4.413,-18.19 -7.6,-26.463 -0.652,-1.685 -1.313,-3.373 -1.985,-5.047" />
      <path
         style="fill:#fb0f0c"
         inkscape:connector-curvature="0"
         id="path8170"
         d="m 250.2857,957.21935 c -7.293,3.016 -15.408,5.976 -21.862,10.562 -5.73,4.07 -14.852,16.134 -9.53,23.513 5.373,7.448 16.584,-1.087 20.206,-6.12 5.196,-7.214 7.635,-17.083 10.363,-25.406 0.278,-0.847 0.55,-1.707 0.823,-2.55" />
      <path
         style="fill:#fb0f0c"
         inkscape:connector-curvature="0"
         id="path8172"
         d="m 250.2857,957.21935 c 7.294,3.016 15.41,5.976 21.863,10.562 5.73,4.07 14.85,16.134 9.53,23.513 -5.373,7.448 -16.584,-1.087 -20.208,-6.12 -5.297,-7.357 -7.775,-17.47 -10.544,-25.967 -0.215,-0.66 -0.428,-1.33 -0.64,-1.988" />
      <path
         style="fill:#fb0f0c"
         inkscape:connector-curvature="0"
         id="path8174"
         d="m 231.5587,956.36335 c -5.89,1.702 -13.185,1.137 -16.947,-4.183 -2.006,-2.83 -2.463,-13.823 3.923,-11.686 1.11,0.372 2.023,5.19 3.378,6.298 2.587,2.116 7.432,2.054 10.576,2.295 4.227,0.327 8.62,-0.11 12.77,0.448 0.01,0.027 0.014,0.048 0.026,0.07 -3.937,2.972 -8.956,5.32 -13.727,6.76" />
      <path
         style="fill:#fb0f0c"
         inkscape:connector-curvature="0"
         id="path8176"
         d="m 268.0107,956.36335 c 5.89,1.702 13.187,1.137 16.95,-4.183 2.005,-2.832 2.462,-13.82 -3.924,-11.687 -1.11,0.372 -2.023,5.19 -3.38,6.3 -2.587,2.114 -7.43,2.052 -10.574,2.293 -4.227,0.328 -8.62,-0.11 -12.77,0.448 -0.01,0.025 -0.015,0.05 -0.026,0.07 3.935,2.973 8.956,5.32 13.725,6.76" />
      <path
         style="fill:#fb0f0c"
         inkscape:connector-curvature="0"
         id="path8178"
         d="m 245.2857,940.03335 c 0.845,-7.194 13.374,-3.7 7.384,6.2 -4.21,6.957 -6.617,0.45 -7.384,-6.2" />
      <path
         style="fill:#fb0f0c"
         inkscape:connector-curvature="0"
         id="path8180"
         d="m 350.6977,957.21935 c -2.94,7.337 -6.047,14.812 -8.06,22.475 -1.816,6.905 -3.26,23.77805 5.843,27.09405 8.74,3.177 11.918,-12.07005 11.802,-18.06005 -0.172,-8.996 -4.41,-18.198 -7.6,-26.463 -0.652,-1.685 -1.312,-3.373 -1.985,-5.047" />
      <path
         style="fill:#fb0f0c"
         inkscape:connector-curvature="0"
         id="path8182"
         d="m 350.2857,957.21935 c -7.293,3.016 -15.412,5.976 -21.862,10.562 -5.73,4.07 -14.853,16.134 -9.53,23.513 5.373,7.448 16.582,-1.087 20.208,-6.12 5.296,-7.357 7.77,-17.47 10.543,-25.967 0.212,-0.658 0.428,-1.333 0.64,-1.988" />
      <path
         style="fill:#fb0f0c"
         inkscape:connector-curvature="0"
         id="path8184"
         d="m 350.2857,957.21935 c 7.294,3.016 15.41,5.976 21.863,10.562 5.733,4.07 14.853,16.134 9.528,23.513 -5.374,7.448 -16.583,-1.087 -20.205,-6.12 -5.297,-7.357 -7.775,-17.47 -10.548,-25.967 -0.212,-0.658 -0.425,-1.333 -0.637,-1.988" />
      <path
         style="fill:#fb0f0c"
         inkscape:connector-curvature="0"
         id="path8186"
         d="m 332.5587,956.36335 c -5.89,1.702 -13.184,1.137 -16.948,-4.183 -2.004,-2.83 -2.463,-13.823 3.924,-11.686 1.112,0.372 2.024,5.19 3.38,6.298 2.588,2.116 7.43,2.054 10.576,2.295 4.223,0.327 8.62,-0.11 12.77,0.448 0,0.024 0.013,0.048 0.024,0.07 -3.937,2.972 -8.956,5.32 -13.727,6.76" />
      <path
         style="fill:#fb0f0c"
         inkscape:connector-curvature="0"
         id="path8188"
         d="m 369.0127,956.36335 c 5.888,1.702 13.183,1.137 16.95,-4.183 2,-2.832 2.46,-13.82 -3.923,-11.687 -1.117,0.372 -2.025,5.19 -3.382,6.3 -2.587,2.114 -7.433,2.052 -10.578,2.293 -4.223,0.328 -8.617,-0.11 -12.77,0.448 0,0.028 -0.01,0.05 -0.024,0.07 3.937,2.973 8.956,5.32 13.727,6.76" />
      <path
         style="fill:#fb0f0c"
         inkscape:connector-curvature="0"
         id="path8190"
         d="m 345.2857,940.03335 c 0.85,-7.194 13.372,-3.7 7.385,6.2 -4.208,6.957 -6.615,0.45 -7.385,-6.2" />
      <path
         style="fill:#fb0f0c"
         inkscape:connector-curvature="0"
         id="path8192"
         d="m 450.6987,957.21935 c -2.94,7.337 -6.046,14.812 -8.063,22.475 -1.813,6.905 -3.26,23.78005 5.85,27.09405 8.74,3.177 11.91,-12.07005 11.797,-18.06005 -0.172,-8.996 -4.405,-18.198 -7.603,-26.463 -0.65,-1.685 -1.31,-3.373 -1.98,-5.047" />
      <path
         style="fill:#fb0f0c"
         inkscape:connector-curvature="0"
         id="path8194"
         d="m 451.2857,957.21935 c -7.293,3.016 -15.41,5.976 -21.864,10.562 -5.73,4.07 -14.848,16.134 -9.53,23.513 5.373,7.448 16.585,-1.087 20.207,-6.12 5.197,-7.214 7.636,-17.083 10.366,-25.406 0.275,-0.847 0.544,-1.707 0.82,-2.55" />
      <path
         style="fill:#fb0f0c"
         inkscape:connector-curvature="0"
         id="path8196"
         d="m 451.2857,957.21935 c 7.293,3.016 15.41,5.976 21.866,10.562 5.728,4.07 14.848,16.134 9.527,23.513 -5.37,7.448 -16.583,-1.087 -20.205,-6.12 -5.198,-7.214 -7.633,-17.083 -10.367,-25.406 -0.275,-0.847 -0.547,-1.707 -0.82,-2.55" />
      <path
         style="fill:#fb0f0c"
         inkscape:connector-curvature="0"
         id="path8198"
         d="m 432.5597,956.36335 c -5.892,1.702 -13.186,1.137 -16.946,-4.183 -2.008,-2.832 -2.467,-13.82 3.923,-11.687 1.11,0.372 2.022,5.19 3.38,6.3 2.586,2.114 7.43,2.052 10.573,2.293 4.227,0.328 8.623,-0.11 12.772,0.448 0,0.028 0.014,0.05 0.025,0.07 -3.94,2.973 -8.952,5.32 -13.726,6.76" />
      <path
         style="fill:#fb0f0c"
         inkscape:connector-curvature="0"
         id="path8200"
         d="m 469.0087,956.36335 c 5.892,1.702 13.19,1.137 16.95,-4.183 2.008,-2.832 2.463,-13.82 -3.923,-11.687 -1.11,0.372 -2.02,5.19 -3.38,6.3 -2.586,2.114 -7.427,2.052 -10.573,2.293 -4.227,0.328 -8.62,-0.11 -12.772,0.448 -0.01,0.028 -0.014,0.05 -0.025,0.07 3.934,2.973 8.956,5.32 13.723,6.76" />
      <path
         style="fill:#fb0f0c"
         inkscape:connector-curvature="0"
         id="path8202"
         d="m 446.2857,940.03335 c 0.843,-7.194 13.374,-3.7 7.384,6.2 -4.212,6.957 -6.62,0.45 -7.384,-6.2" />
      <path
         style="fill:#fb0f0c"
         inkscape:connector-curvature="0"
         id="path8204"
         d="m 148.6997,957.21935 c -2.94,7.334 -6.048,14.812 -8.063,22.475 -1.814,6.905 -3.26,23.78005 5.847,27.09405 8.738,3.177 11.916,-12.07005 11.8,-18.06005 -0.172,-9.003 -4.412,-18.19 -7.602,-26.463 -0.648,-1.685 -1.31,-3.373 -1.98,-5.047" />
      <path
         style="fill:#fb0f0c"
         inkscape:connector-curvature="0"
         id="path8206"
         d="m 149.2857,957.21935 c -7.295,3.016 -15.41,5.976 -21.863,10.562 -5.73,4.07 -14.85,16.134 -9.53,23.513 5.373,7.45 16.584,-1.09 20.207,-6.118 5.194,-7.216 7.633,-17.085 10.363,-25.408 0.278,-0.844 0.55,-1.707 0.823,-2.55" />
      <path
         style="fill:#fb0f0c"
         inkscape:connector-curvature="0"
         id="path8208"
         d="m 149.2857,957.21935 c 7.293,3.016 15.408,5.98 21.862,10.562 5.73,4.067 14.852,16.134 9.53,23.513 -5.373,7.448 -16.582,-1.087 -20.206,-6.12 -5.296,-7.357 -7.775,-17.47 -10.545,-25.967 -0.215,-0.658 -0.428,-1.333 -0.64,-1.988" />
      <path
         style="fill:#fb0f0c"
         inkscape:connector-curvature="0"
         id="path8210"
         d="m 130.5607,956.36335 c -5.892,1.702 -13.187,1.137 -16.95,-4.183 -2.005,-2.83 -2.462,-13.823 3.924,-11.686 1.11,0.372 2.024,5.19 3.38,6.298 2.587,2.116 7.43,2.054 10.574,2.295 4.227,0.327 8.62,-0.11 12.77,0.448 0.01,0.027 0.015,0.048 0.026,0.07 -3.937,2.972 -8.954,5.32 -13.725,6.76" />
      <path
         style="fill:#fb0f0c"
         inkscape:connector-curvature="0"
         id="path8212"
         d="m 167.0107,956.36235 c 5.892,1.702 13.186,1.14 16.95,-4.182 2.004,-2.832 2.462,-13.823 -3.925,-11.687 -1.11,0.373 -2.023,5.19 -3.378,6.3 -2.587,2.114 -7.43,2.052 -10.575,2.293 -4.227,0.328 -8.62,-0.11 -12.772,0.448 0,0.028 -0.013,0.05 -0.025,0.07 3.937,2.973 8.956,5.32 13.725,6.76" />
      <path
         style="fill:#fb0f0c"
         inkscape:connector-curvature="0"
         id="path8214"
         d="m 144.2857,940.03235 c 0.848,-7.193 13.372,-3.698 7.385,6.198 -4.21,6.963 -6.615,0.454 -7.385,-6.197" />
      <path
         style="fill:#fb0f0c"
         inkscape:connector-curvature="0"
         id="path8216"
         d="m 526.2857,962.32535 c 6.828,3.71 14.213,8.28 21.768,10.26 6.878,1.803 19.897,0.064 21.15,-9.16 1.21,-8.9 -11.198,-12.897 -17.89,-12.11 -8.346,0.985 -17.098,6.686 -24.41,10.66 -0.202,0.11 -0.415,0.236 -0.618,0.35" />
      <path
         style="fill:#fb0f0c"
         inkscape:connector-curvature="0"
         id="path8218"
         d="m 526.2857,962.21935 c 2.913,9.377 11.95,45.17705 28.224,36.717 7.928,-4.12 1.55,-17.756 -2.6,-22.393 -5.86,-6.533 -15.573,-9.965 -23.425,-13.376 -0.73,-0.32 -1.472,-0.634 -2.2,-0.948" />
      <path
         style="fill:#fb0f0c"
         inkscape:connector-curvature="0"
         id="path8220"
         d="m 526.2857,962.21935 c 2.92,-9.382 11.954,-45.192 28.227,-36.712 7.92,4.126 1.554,17.718 -2.6,22.362 -5.86,6.54 -15.57,9.985 -23.422,13.41 -0.735,0.316 -1.477,0.626 -2.205,0.94" />
      <path
         style="fill:#fb0f0c"
         inkscape:connector-curvature="0"
         id="path8222"
         d="m 525.4757,984.08635 c 1.32,6.064 1.595,15.16 -3.66,19.58605 -3.42,2.883 -12.264,1.934 -10.23,-4.53305 0.38,-1.197 4.49,-2.45 5.513,-3.917 2.115,-3.04 1.81,-8.713 2.007,-12.212 0.275,-4.887 -0.163,-9.927 0.393,-14.762 0.02,-0.007 0.042,-0.014 0.06,-0.028 2.744,4.753 4.712,10.484 5.916,15.867" />
      <path
         style="fill:#fb0f0c"
         inkscape:connector-curvature="0"
         id="path8224"
         d="m 525.4707,941.35535 c 1.325,-6.07 1.606,-15.163 -3.657,-19.59 -3.418,-2.877 -12.27,-1.942 -10.225,4.533 0.375,1.19 4.495,2.443 5.51,3.91 2.114,3.035 1.808,8.72 2.006,12.22 0.274,4.89 -0.164,9.927 0.392,14.762 0.02,0.007 0.042,0.017 0.06,0.028 2.735,-4.746 4.724,-10.484 5.913,-15.864" />
      <path
         style="fill:#fb0f0c"
         inkscape:connector-curvature="0"
         id="path8226"
         d="m 511.9927,968.21935 c -6.782,-1.642 -3.884,-16.348 5.64,-8.915 5.728,4.468 1.41,7.71 -5.64,8.915" />
      <path
         style="fill:#fb0f0c"
         inkscape:connector-curvature="0"
         id="path8228"
         d="m 526.2857,846.31935 c 6.83,3.717 14.22,8.278 21.778,10.266 6.866,1.803 19.907,0.064 21.142,-9.162 1.19,-8.892 -11.197,-12.892 -17.894,-12.108 -8.342,0.973 -17.104,6.68 -24.403,10.656 -0.207,0.11 -0.42,0.238 -0.623,0.348" />
      <path
         style="fill:#fb0f0c"
         inkscape:connector-curvature="0"
         id="path8230"
         d="m 526.2857,846.21935 c 2.926,9.38 11.953,45.18 28.226,36.716 7.92,-4.123 1.553,-17.745 -2.6,-22.378 -5.866,-6.537 -15.573,-9.972 -23.42,-13.394 -0.736,-0.32 -1.478,-0.634 -2.206,-0.944" />
      <path
         style="fill:#fb0f0c"
         inkscape:connector-curvature="0"
         id="path8232"
         d="m 526.2857,846.21935 c 2.913,-9.387 11.944,-45.18 28.223,-36.716 7.928,4.123 1.554,17.74 -2.6,22.375 -5.862,6.54 -15.573,9.974 -23.424,13.396 -0.73,0.317 -1.472,0.63 -2.2,0.944" />
      <path
         style="fill:#fb0f0c"
         inkscape:connector-curvature="0"
         id="path8234"
         d="m 525.4707,868.07135 c 1.325,6.086 1.606,15.15 -3.657,19.593 -3.41,2.88 -12.272,1.973 -10.225,-4.52 0.376,-1.187 4.496,-2.444 5.51,-3.907 2.114,-3.04 1.808,-8.722 2.007,-12.225 0.274,-4.892 -0.164,-9.93 0.392,-14.765 0.02,-0.007 0.042,-0.017 0.06,-0.028 2.736,4.74 4.72,10.475 5.913,15.852" />
      <path
         style="fill:#fb0f0c"
         inkscape:connector-curvature="0"
         id="path8236"
         d="m 525.4757,825.35535 c 1.32,-6.064 1.595,-15.16 -3.66,-19.59 -3.413,-2.88 -12.28,-1.938 -10.225,4.533 0.38,1.186 4.493,2.44 5.51,3.906 2.115,3.043 1.81,8.72 2.008,12.223 0.274,4.89 -0.164,9.927 0.392,14.762 0.02,0.007 0.042,0.017 0.06,0.028 2.743,-4.75 4.71,-10.484 5.914,-15.864" />
      <path
         style="fill:#fb0f0c"
         inkscape:connector-curvature="0"
         id="path8238"
         d="m 511.9907,852.21935 c -6.78,-1.636 -3.876,-16.343 5.64,-8.92 5.734,4.476 1.41,7.712 -5.64,8.92" />
      <path
         style="fill:#fb0f0c"
         inkscape:connector-curvature="0"
         id="path8240"
         d="m 526.2857,730.32635 c 6.82,3.72 14.227,8.283 21.783,10.26 6.877,1.8 19.883,0.063 21.135,-9.153 1.207,-8.89 -11.194,-12.902 -17.89,-12.118 -8.35,0.983 -17.1,6.694 -24.41,10.663 -0.202,0.113 -0.412,0.237 -0.618,0.347" />
      <path
         style="fill:#fb0f0c"
         inkscape:connector-curvature="0"
         id="path8242"
         d="m 526.2857,730.21935 c 2.926,9.387 11.953,45.182 28.226,36.715 7.92,-4.12 1.553,-17.74 -2.6,-22.374 -5.866,-6.54 -15.573,-9.974 -23.42,-13.396 -0.736,-0.317 -1.478,-0.63 -2.206,-0.944" />
      <path
         style="fill:#fb0f0c"
         inkscape:connector-curvature="0"
         id="path8244"
         d="m 526.2857,730.21935 c 2.926,-9.38 11.953,-45.18 28.226,-36.716 7.92,4.123 1.553,17.745 -2.6,22.378 -5.866,6.537 -15.573,9.976 -23.42,13.394 -0.736,0.32 -1.478,0.634 -2.206,0.944" />
      <path
         style="fill:#fb0f0c"
         inkscape:connector-curvature="0"
         id="path8246"
         d="m 525.4757,751.07435 c 1.32,6.07 1.595,15.165 -3.66,19.597 -3.418,2.884 -12.272,1.938 -10.227,-4.535 0.375,-1.19 4.496,-2.445 5.512,-3.912 2.114,-3.04 1.808,-8.723 2.006,-12.223 0.276,-4.868 -0.232,-10.013 0.43,-14.782 2.795,4.627 4.746,10.52 5.94,15.855" />
      <path
         style="fill:#fb0f0c"
         inkscape:connector-curvature="0"
         id="path8248"
         d="m 525.4757,709.36135 c 1.32,-6.065 1.595,-15.163 -3.66,-19.592 -3.418,-2.887 -12.272,-1.94 -10.227,4.535 0.375,1.19 4.496,2.445 5.512,3.908 2.114,3.04 1.808,8.722 2.006,12.226 0.276,4.867 -0.232,10.01 0.43,14.78 2.795,-4.627 4.746,-10.522 5.94,-15.858" />
      <path
         style="fill:#fb0f0c"
         inkscape:connector-curvature="0"
         id="path8250"
         d="m 511.9917,736.21935 c -6.784,-1.638 -3.876,-16.33 5.64,-8.93 5.74,4.47 1.393,7.706 -5.64,8.93" />
      <path
         style="fill:#fb0f0c"
         inkscape:connector-curvature="0"
         id="path8252"
         d="m 526.2857,497.32235 c 6.825,3.715 14.22,8.287 21.768,10.264 6.878,1.8 19.897,0.062 21.15,-9.16 1.21,-8.9 -11.198,-12.898 -17.89,-12.11 -8.35,0.985 -17.098,6.686 -24.41,10.656 -0.202,0.114 -0.415,0.238 -0.618,0.35" />
      <path
         style="fill:#fb0f0c"
         inkscape:connector-curvature="0"
         id="path8254"
         d="m 526.2857,497.21935 c 2.913,9.38 11.95,45.178 28.224,36.717 7.928,-4.12 1.55,-17.757 -2.6,-22.393 -5.856,-6.53 -15.573,-9.967 -23.425,-13.38 -0.73,-0.32 -1.472,-0.634 -2.2,-0.944" />
      <path
         style="fill:#fb0f0c"
         inkscape:connector-curvature="0"
         id="path8256"
         d="m 526.2857,497.21935 c 2.92,-9.384 11.957,-45.193 28.227,-36.71 7.92,4.124 1.554,17.718 -2.6,22.358 -5.86,6.54 -15.573,9.983 -23.422,13.408 -0.735,0.32 -1.477,0.63 -2.205,0.944" />
      <path
         style="fill:#fb0f0c"
         inkscape:connector-curvature="0"
         id="path8258"
         d="m 525.4697,518.06735 c 1.33,6.06 1.606,15.148 -3.68,19.573 -3.643,3.056 -12.22,1.775 -10.2,-4.696 0.304,-0.97 4.73,-2.72 5.686,-4.225 1.997,-3.157 1.647,-8.847 1.83,-12.407 0.23,-4.62 -0.29,-9.596 0.415,-14.093 2.76,4.747 4.74,10.474 5.95,15.848" />
      <path
         style="fill:#fb0f0c"
         inkscape:connector-curvature="0"
         id="path8260"
         d="m 525.4707,476.35535 c 1.325,-6.07 1.606,-15.16 -3.657,-19.59 -3.414,-2.877 -12.272,-1.942 -10.224,4.534 0.375,1.19 4.495,2.444 5.51,3.908 2.113,3.037 1.807,8.722 2.006,12.22 0.274,4.893 -0.164,9.93 0.392,14.764 0.02,0.007 0.042,0.016 0.06,0.028 2.74,-4.746 4.724,-10.484 5.913,-15.864" />
      <path
         style="fill:#fb0f0c"
         inkscape:connector-curvature="0"
         id="path8262"
         d="m 511.9927,503.21935 c -6.782,-1.642 -3.884,-16.346 5.64,-8.917 5.728,4.47 1.41,7.707 -5.64,8.917" />
      <path
         style="fill:#fb0f0c"
         inkscape:connector-curvature="0"
         id="path8264"
         d="m 526.2857,380.31935 c 6.83,3.72 14.22,8.275 21.778,10.264 6.87,1.807 19.907,0.064 21.142,-9.16 1.19,-8.894 -11.197,-12.89 -17.894,-12.108 -8.342,0.974 -17.104,6.685 -24.403,10.654 -0.207,0.113 -0.42,0.24 -0.623,0.35" />
      <path
         style="fill:#fb0f0c"
         inkscape:connector-curvature="0"
         id="path8266"
         d="m 526.2857,381.21935 c 2.926,9.383 11.953,45.18 28.226,36.716 7.92,-4.12 1.553,-17.743 -2.6,-22.377 -5.866,-6.54 -15.573,-9.973 -23.42,-13.396 -0.736,-0.32 -1.478,-0.632 -2.206,-0.944" />
      <path
         style="fill:#fb0f0c"
         inkscape:connector-curvature="0"
         id="path8268"
         d="m 526.2857,381.21935 c 2.913,-9.385 11.944,-45.18 28.224,-36.715 7.928,4.12 1.55,17.742 -2.6,22.375 -5.863,6.538 -15.57,9.976 -23.425,13.397 -0.73,0.318 -1.472,0.63 -2.2,0.943" />
      <path
         style="fill:#fb0f0c"
         inkscape:connector-curvature="0"
         id="path8270"
         d="m 525.4707,402.07135 c 1.325,6.086 1.606,15.153 -3.657,19.593 -3.41,2.88 -12.275,1.973 -10.224,-4.52 0.376,-1.19 4.495,-2.444 5.51,-3.91 2.114,-3.037 1.808,-8.722 2.006,-12.222 0.275,-4.892 -0.163,-9.93 0.393,-14.765 0.02,-0.007 0.042,-0.016 0.06,-0.028 2.735,4.74 4.72,10.477 5.912,15.852" />
      <path
         style="fill:#fb0f0c"
         inkscape:connector-curvature="0"
         id="path8272"
         d="m 525.4727,359.35535 c 1.325,-6.065 1.597,-15.158 -3.658,-19.586 -3.417,-2.88 -12.264,-1.952 -10.23,4.52 0.38,1.2 4.49,2.448 5.513,3.92 2.114,3.04 1.808,8.718 2.006,12.22 0.274,4.892 -0.164,9.928 0.392,14.762 0.02,0.007 0.042,0.016 0.06,0.028 2.743,-4.75 4.712,-10.483 5.915,-15.864" />
      <path
         style="fill:#fb0f0c"
         inkscape:connector-curvature="0"
         id="path8274"
         d="m 511.9907,387.21935 c -6.78,-1.63 -3.88,-16.346 5.64,-8.92 5.734,4.475 1.41,7.713 -5.64,8.92" />
      <path
         style="fill:#fb0f0c"
         inkscape:connector-curvature="0"
         id="path8276"
         d="m 526.2857,264.32935 c 6.818,3.72 14.227,8.28 21.783,10.257 6.877,1.8 19.883,0.06 21.135,-9.152 1.207,-8.892 -11.194,-12.904 -17.89,-12.12 -8.35,0.982 -17.1,6.696 -24.41,10.665 -0.202,0.114 -0.412,0.238 -0.618,0.35" />
      <path
         style="fill:#fb0f0c"
         inkscape:connector-curvature="0"
         id="path8278"
         d="m 526.2857,264.21935 c 2.926,9.383 11.953,45.182 28.226,36.715 7.92,-4.12 1.553,-17.743 -2.6,-22.376 -5.866,-6.54 -15.573,-9.973 -23.42,-13.396 -0.736,-0.317 -1.478,-0.63 -2.206,-0.944" />
      <path
         style="fill:#fb0f0c"
         inkscape:connector-curvature="0"
         id="path8280"
         d="m 526.2857,264.21935 c 2.926,-9.383 11.953,-45.18 28.226,-36.716 7.92,4.12 1.553,17.743 -2.6,22.377 -5.866,6.54 -15.573,9.973 -23.42,13.396 -0.736,0.32 -1.478,0.632 -2.206,0.944" />
      <path
         style="fill:#fb0f0c"
         inkscape:connector-curvature="0"
         id="path8282"
         d="m 525.4757,286.07435 c 1.32,6.066 1.595,15.165 -3.66,19.597 -3.418,2.884 -12.272,1.938 -10.227,-4.537 0.375,-1.19 4.496,-2.445 5.512,-3.908 2.114,-3.04 1.808,-8.725 2.006,-12.227 0.276,-4.868 -0.232,-10.015 0.43,-14.78 2.795,4.624 4.746,10.52 5.94,15.855" />
      <path
         style="fill:#fb0f0c"
         inkscape:connector-curvature="0"
         id="path8284"
         d="m 525.4757,243.36435 c 1.32,-6.068 1.595,-15.164 -3.66,-19.597 -3.418,-2.884 -12.272,-1.94 -10.227,4.537 0.375,1.19 4.496,2.443 5.512,3.908 2.114,3.04 1.808,8.723 2.006,12.227 0.276,4.868 -0.232,10.013 0.43,14.78 2.795,-4.627 4.746,-10.52 5.94,-15.855" />
      <path
         style="fill:#fb0f0c"
         inkscape:connector-curvature="0"
         id="path8286"
         d="m 511.9917,270.21935 c -6.784,-1.636 -3.876,-16.33 5.64,-8.93 5.74,4.468 1.393,7.708 -5.64,8.93" />
      <path
         style="fill:#fb0f0c"
         inkscape:connector-curvature="0"
         id="path8288"
         d="m 526.2857,613.32135 c 6.818,3.723 14.227,8.288 21.783,10.266 6.877,1.8 19.883,0.06 21.135,-9.162 1.207,-8.9 -11.194,-12.897 -17.89,-12.11 -8.35,0.986 -17.098,6.686 -24.41,10.658 -0.202,0.11 -0.412,0.238 -0.618,0.348" />
      <path
         style="fill:#fb0f0c"
         inkscape:connector-curvature="0"
         id="path8290"
         d="m 526.2857,613.21935 c 2.926,9.383 11.953,45.182 28.226,36.715 7.92,-4.12 1.553,-17.74 -2.6,-22.378 -5.866,-6.536 -15.573,-9.97 -23.42,-13.393 -0.736,-0.32 -1.478,-0.63 -2.206,-0.944" />
      <path
         style="fill:#fb0f0c"
         inkscape:connector-curvature="0"
         id="path8292"
         d="m 526.2857,613.21935 c 2.926,-9.382 11.953,-45.182 28.226,-36.715 7.92,4.12 1.553,17.742 -2.6,22.375 -5.866,6.54 -15.573,9.976 -23.42,13.4 -0.736,0.316 -1.478,0.626 -2.206,0.94" />
      <path
         style="fill:#fb0f0c"
         inkscape:connector-curvature="0"
         id="path8294"
         d="m 525.4757,635.08435 c 1.32,6.063 1.595,15.157 -3.66,19.584 -3.423,2.89 -12.264,1.94 -10.23,-4.534 0.376,-1.19 4.494,-2.458 5.513,-3.917 2.115,-3.043 1.81,-8.723 2.007,-12.226 0.275,-4.883 -0.163,-9.915 0.393,-14.746 0.02,-0.007 0.042,-0.014 0.06,-0.028 2.744,4.752 4.712,10.482 5.916,15.865" />
      <path
         style="fill:#fb0f0c"
         inkscape:connector-curvature="0"
         id="path8296"
         d="m 525.4737,592.36335 c 1.32,-6.07 1.6,-15.16 -3.658,-19.596 -3.418,-2.884 -12.272,-1.94 -10.227,4.537 0.375,1.19 4.496,2.446 5.512,3.91 2.114,3.04 1.808,8.722 2.006,12.224 0.276,4.867 -0.232,10.01 0.43,14.78 2.788,-4.63 4.745,-10.52 5.938,-15.856" />
      <path
         style="fill:#fb0f0c"
         inkscape:connector-curvature="0"
         id="path8298"
         d="m 511.9917,619.21935 c -6.776,-1.596 -3.892,-16.368 5.648,-8.91 5.72,4.474 1.396,7.725 -5.648,8.91" />
      <path
         style="fill:#fb0f0c"
         inkscape:connector-curvature="0"
         id="path8300"
         d="m 75.2857,962.32535 c -6.827,3.71 -14.215,8.28 -21.77,10.26 -6.877,1.803 -19.895,0.064 -21.148,-9.16 -1.21,-8.9 11.195,-12.897 17.887,-12.11 8.35,0.985 17.1,6.686 24.41,10.66 0.205,0.11 0.42,0.236 0.62,0.35" />
      <path
         style="fill:#fb0f0c"
         inkscape:connector-curvature="0"
         id="path8302"
         d="m 75.2857,962.21935 c -2.913,9.377 -11.952,45.17505 -28.225,36.718 -7.926,-4.12 -1.55,-17.757 2.604,-22.394 5.856,-6.533 15.568,-9.965 23.418,-13.376 0.732,-0.32 1.47,-0.634 2.202,-0.948" />
      <path
         style="fill:#fb0f0c"
         inkscape:connector-curvature="0"
         id="path8304"
         d="m 75.2857,962.21935 c -2.917,-9.386 -11.955,-45.19 -28.228,-36.712 -7.917,4.125 -1.554,17.718 2.603,22.362 5.86,6.535 15.566,9.985 23.422,13.41 0.73,0.316 1.473,0.626 2.203,0.94" />
      <path
         style="fill:#fb0f0c"
         inkscape:connector-curvature="0"
         id="path8306"
         d="m 76.0977,984.08635 c -1.323,6.064 -1.596,15.16 3.66,19.58605 3.42,2.883 12.265,1.934 10.227,-4.53305 -0.38,-1.197 -4.49,-2.447 -5.513,-3.917 -2.114,-3.04 -1.81,-8.713 -2.008,-12.212 -0.276,-4.887 0.164,-9.927 -0.392,-14.762 -0.02,-0.007 -0.042,-0.014 -0.06,-0.028 -2.74,4.753 -4.71,10.484 -5.916,15.867" />
      <path
         style="fill:#fb0f0c"
         inkscape:connector-curvature="0"
         id="path8308"
         d="m 76.1017,941.35535 c -1.328,-6.07 -1.604,-15.163 3.658,-19.59 3.42,-2.877 12.27,-1.942 10.223,4.533 -0.376,1.19 -4.49,2.443 -5.51,3.91 -2.113,3.035 -1.81,8.72 -2.007,12.22 -0.275,4.887 0.165,9.93 -0.39,14.762 -0.022,0.007 -0.043,0.017 -0.062,0.028 -2.736,-4.746 -4.723,-10.484 -5.912,-15.864" />
      <path
         style="fill:#fb0f0c"
         inkscape:connector-curvature="0"
         id="path8310"
         d="m 90.5797,968.21935 c 6.783,-1.646 3.878,-16.346 -5.64,-8.916 -5.73,4.47 -1.41,7.71 5.64,8.916" />
      <path
         style="fill:#fb0f0c"
         inkscape:connector-curvature="0"
         id="path8312"
         d="m 75.2857,846.31935 c -6.834,3.717 -14.216,8.278 -21.777,10.266 -6.87,1.803 -19.908,0.064 -21.143,-9.162 -1.19,-8.892 11.196,-12.892 17.892,-12.108 8.346,0.973 17.107,6.684 24.407,10.656 0.207,0.11 0.417,0.238 0.62,0.348" />
      <path
         style="fill:#fb0f0c"
         inkscape:connector-curvature="0"
         id="path8314"
         d="m 75.2857,846.21935 c -2.926,9.383 -11.95,45.18 -28.228,36.716 -7.918,-4.12 -1.553,-17.745 2.604,-22.378 5.864,-6.537 15.567,-9.972 23.42,-13.394 0.73,-0.32 1.474,-0.634 2.204,-0.944" />
      <path
         style="fill:#fb0f0c"
         inkscape:connector-curvature="0"
         id="path8316"
         d="m 75.2857,846.21935 c -2.917,-9.387 -11.946,-45.18 -28.226,-36.716 -7.923,4.12 -1.55,17.738 2.604,22.375 5.86,6.535 15.566,9.978 23.42,13.396 0.73,0.317 1.472,0.63 2.202,0.944" />
      <path
         style="fill:#fb0f0c"
         inkscape:connector-curvature="0"
         id="path8318"
         d="m 76.1007,868.07135 c -1.326,6.086 -1.604,15.154 3.658,19.593 3.412,2.88 12.274,1.973 10.223,-4.52 -0.376,-1.19 -4.49,-2.444 -5.51,-3.907 -2.113,-3.04 -1.81,-8.722 -2.007,-12.225 -0.275,-4.892 0.164,-9.93 -0.392,-14.765 -0.02,-0.007 -0.042,-0.017 -0.06,-0.028 -2.733,4.743 -4.72,10.475 -5.913,15.852" />
      <path
         style="fill:#fb0f0c"
         inkscape:connector-curvature="0"
         id="path8320"
         d="m 76.0977,825.35535 c -1.323,-6.067 -1.596,-15.16 3.658,-19.59 3.416,-2.88 12.28,-1.938 10.224,4.533 -0.377,1.186 -4.49,2.44 -5.51,3.906 -2.115,3.043 -1.81,8.72 -2.007,12.223 -0.275,4.89 0.165,9.927 -0.392,14.762 -0.02,0.007 -0.04,0.017 -0.06,0.028 -2.74,-4.753 -4.708,-10.48 -5.913,-15.864" />
      <path
         style="fill:#fb0f0c"
         inkscape:connector-curvature="0"
         id="path8322"
         d="m 90.5817,852.21935 c 6.783,-1.636 3.87,-16.343 -5.64,-8.92 -5.736,4.476 -1.408,7.712 5.64,8.92" />
      <path
         style="fill:#fb0f0c"
         inkscape:connector-curvature="0"
         id="path8324"
         d="m 75.2857,730.32635 c -6.82,3.72 -14.23,8.283 -21.782,10.26 -6.877,1.8 -19.885,0.063 -21.136,-9.153 -1.207,-8.89 11.19,-12.902 17.886,-12.118 8.352,0.983 17.105,6.694 24.41,10.663 0.207,0.113 0.42,0.24 0.622,0.347" />
      <path
         style="fill:#fb0f0c"
         inkscape:connector-curvature="0"
         id="path8326"
         d="m 75.2857,730.21935 c -2.926,9.387 -11.95,45.18 -28.228,36.716 -7.918,-4.116 -1.553,-17.74 2.604,-22.375 5.862,-6.535 15.57,-9.97 23.42,-13.396 0.73,-0.317 1.474,-0.63 2.204,-0.944" />
      <path
         style="fill:#fb0f0c"
         inkscape:connector-curvature="0"
         id="path8328"
         d="m 75.2857,730.21935 c -2.926,-9.384 -11.95,-45.177 -28.227,-36.717 -7.92,4.12 -1.552,17.745 2.603,22.38 5.864,6.536 15.57,9.97 23.42,13.393 0.73,0.32 1.474,0.634 2.204,0.944" />
      <path
         style="fill:#fb0f0c"
         inkscape:connector-curvature="0"
         id="path8330"
         d="m 76.0977,751.07435 c -1.323,6.07 -1.596,15.165 3.658,19.597 3.42,2.884 12.273,1.938 10.227,-4.535 -0.376,-1.19 -4.492,-2.445 -5.51,-3.912 -2.117,-3.04 -1.81,-8.723 -2.01,-12.223 -0.272,-4.868 0.24,-10.017 -0.427,-14.782 -2.794,4.63 -4.743,10.52 -5.938,15.855" />
      <path
         style="fill:#fb0f0c"
         inkscape:connector-curvature="0"
         id="path8332"
         d="m 76.0977,709.36135 c -1.323,-6.066 -1.596,-15.164 3.66,-19.593 3.42,-2.885 12.27,-1.943 10.225,4.534 -0.376,1.19 -4.493,2.444 -5.51,3.908 -2.117,3.04 -1.81,8.723 -2.01,12.227 -0.272,4.867 0.24,10.015 -0.427,14.78 -2.796,-4.63 -4.743,-10.523 -5.938,-15.858" />
      <path
         style="fill:#fb0f0c"
         inkscape:connector-curvature="0"
         id="path8334"
         d="m 90.5817,736.21935 c 6.784,-1.642 3.87,-16.328 -5.64,-8.93 -5.744,4.47 -1.393,7.706 5.64,8.93" />
      <path
         style="fill:#fb0f0c"
         inkscape:connector-curvature="0"
         id="path8336"
         d="m 75.2857,497.32235 c -6.822,3.715 -14.218,8.285 -21.77,10.264 -6.877,1.8 -19.895,0.062 -21.148,-9.16 -1.208,-8.9 11.195,-12.898 17.887,-12.11 8.35,0.985 17.1,6.686 24.41,10.656 0.205,0.112 0.417,0.24 0.62,0.35" />
      <path
         style="fill:#fb0f0c"
         inkscape:connector-curvature="0"
         id="path8338"
         d="m 75.2857,497.21935 c -2.915,9.38 -11.952,45.176 -28.225,36.717 -7.926,-4.12 -1.55,-17.757 2.604,-22.392 5.855,-6.532 15.568,-9.97 23.418,-13.38 0.73,-0.32 1.472,-0.635 2.202,-0.945" />
      <path
         style="fill:#fb0f0c"
         inkscape:connector-curvature="0"
         id="path8340"
         d="m 75.2857,497.21935 c -2.917,-9.386 -11.957,-45.19 -28.228,-36.712 -7.916,4.126 -1.555,17.72 2.604,22.36 5.86,6.54 15.567,9.983 23.42,13.408 0.73,0.32 1.476,0.63 2.204,0.944" />
      <path
         style="fill:#fb0f0c"
         inkscape:connector-curvature="0"
         id="path8342"
         d="m 76.1017,518.06935 c -1.33,6.06 -1.605,15.145 3.68,19.572 3.647,3.053 12.22,1.774 10.2,-4.698 -0.302,-0.97 -4.733,-2.72 -5.686,-4.225 -2,-3.157 -1.65,-8.847 -1.827,-12.406 -0.233,-4.622 0.29,-9.6 -0.42,-14.094 -2.756,4.75 -4.735,10.474 -5.947,15.85" />
      <path
         style="fill:#fb0f0c"
         inkscape:connector-curvature="0"
         id="path8344"
         d="m 76.1007,476.35535 c -1.326,-6.07 -1.604,-15.16 3.658,-19.59 3.418,-2.876 12.27,-1.943 10.223,4.533 -0.375,1.19 -4.49,2.443 -5.51,3.908 -2.112,3.037 -1.808,8.722 -2.006,12.22 -0.275,4.892 0.165,9.93 -0.392,14.764 -0.02,0.007 -0.04,0.016 -0.06,0.028 -2.737,-4.748 -4.724,-10.484 -5.913,-15.864" />
      <path
         style="fill:#fb0f0c"
         inkscape:connector-curvature="0"
         id="path8346"
         d="m 90.5797,503.21935 c 6.783,-1.646 3.878,-16.345 -5.64,-8.917 -5.73,4.472 -1.408,7.707 5.64,8.917" />
      <path
         style="fill:#fb0f0c"
         inkscape:connector-curvature="0"
         id="path8348"
         d="m 75.2857,380.31935 c -6.83,3.717 -14.218,8.275 -21.777,10.264 -6.87,1.807 -19.908,0.064 -21.143,-9.16 -1.19,-8.894 11.196,-12.89 17.892,-12.108 8.346,0.974 17.105,6.687 24.407,10.654 0.207,0.113 0.417,0.24 0.62,0.35" />
      <path
         style="fill:#fb0f0c"
         inkscape:connector-curvature="0"
         id="path8350"
         d="m 75.2857,381.21935 c -2.926,9.385 -11.952,45.178 -28.228,36.716 -7.918,-4.117 -1.55,-17.743 2.603,-22.377 5.864,-6.537 15.568,-9.972 23.422,-13.396 0.73,-0.32 1.475,-0.632 2.203,-0.944" />
      <path
         style="fill:#fb0f0c"
         inkscape:connector-curvature="0"
         id="path8352"
         d="m 75.2857,381.21935 c -2.915,-9.386 -11.945,-45.18 -28.226,-36.716 -7.924,4.118 -1.55,17.742 2.605,22.376 5.86,6.537 15.565,9.976 23.418,13.397 0.73,0.318 1.472,0.63 2.202,0.943" />
      <path
         style="fill:#fb0f0c"
         inkscape:connector-curvature="0"
         id="path8354"
         d="m 76.1007,402.07135 c -1.326,6.086 -1.604,15.155 3.658,19.594 3.412,2.878 12.274,1.973 10.223,-4.52 -0.376,-1.19 -4.49,-2.445 -5.51,-3.91 -2.113,-3.037 -1.81,-8.723 -2.007,-12.223 -0.275,-4.892 0.164,-9.93 -0.392,-14.765 -0.02,-0.007 -0.042,-0.016 -0.06,-0.028 -2.733,4.743 -4.72,10.475 -5.913,15.852" />
      <path
         style="fill:#fb0f0c"
         inkscape:connector-curvature="0"
         id="path8356"
         d="m 76.0977,359.35535 c -1.323,-6.067 -1.596,-15.158 3.66,-19.586 3.415,-2.88 12.263,-1.952 10.228,4.52 -0.378,1.2 -4.487,2.448 -5.512,3.92 -2.117,3.04 -1.81,8.718 -2.01,12.22 -0.273,4.89 0.167,9.928 -0.39,14.762 -0.023,0.007 -0.042,0.016 -0.06,0.028 -2.74,-4.753 -4.71,-10.483 -5.916,-15.864" />
      <path
         style="fill:#fb0f0c"
         inkscape:connector-curvature="0"
         id="path8358"
         d="m 90.5817,387.21935 c 6.782,-1.635 3.873,-16.345 -5.642,-8.92 -5.733,4.475 -1.407,7.713 5.642,8.92" />
      <path
         style="fill:#fb0f0c"
         inkscape:connector-curvature="0"
         id="path8360"
         d="m 75.2857,264.32935 c -6.82,3.72 -14.23,8.28 -21.782,10.257 -6.877,1.8 -19.885,0.06 -21.136,-9.152 -1.207,-8.892 11.19,-12.904 17.886,-12.12 8.352,0.982 17.105,6.696 24.41,10.665 0.207,0.114 0.42,0.238 0.622,0.35" />
      <path
         style="fill:#fb0f0c"
         inkscape:connector-curvature="0"
         id="path8362"
         d="m 75.2857,264.21935 c -2.926,9.387 -11.952,45.18 -28.228,36.716 -7.918,-4.117 -1.55,-17.743 2.603,-22.377 5.864,-6.537 15.57,-9.97 23.422,-13.396 0.73,-0.317 1.475,-0.63 2.203,-0.944" />
      <path
         style="fill:#fb0f0c"
         inkscape:connector-curvature="0"
         id="path8364"
         d="m 75.2857,264.21935 c -2.924,-9.385 -11.95,-45.178 -28.227,-36.716 -7.92,4.117 -1.552,17.743 2.603,22.377 5.864,6.537 15.57,9.972 23.42,13.396 0.73,0.32 1.476,0.632 2.204,0.944" />
      <path
         style="fill:#fb0f0c"
         inkscape:connector-curvature="0"
         id="path8366"
         d="m 76.0977,286.07435 c -1.323,6.068 -1.596,15.165 3.658,19.597 3.42,2.884 12.273,1.938 10.227,-4.537 -0.376,-1.19 -4.492,-2.445 -5.51,-3.908 -2.117,-3.04 -1.81,-8.725 -2.01,-12.227 -0.272,-4.866 0.24,-10.016 -0.427,-14.78 -2.796,4.627 -4.745,10.52 -5.938,15.855" />
      <path
         style="fill:#fb0f0c"
         inkscape:connector-curvature="0"
         id="path8368"
         d="m 76.0977,243.36435 c -1.323,-6.07 -1.596,-15.164 3.658,-19.597 3.42,-2.884 12.273,-1.94 10.227,4.537 -0.376,1.19 -4.492,2.443 -5.51,3.908 -2.117,3.04 -1.81,8.723 -2.01,12.227 -0.272,4.867 0.24,10.015 -0.427,14.78 -2.794,-4.633 -4.743,-10.52 -5.938,-15.855" />
      <path
         style="fill:#fb0f0c"
         inkscape:connector-curvature="0"
         id="path8370"
         d="m 90.5817,270.21935 c 6.782,-1.64 3.87,-16.33 -5.64,-8.93 -5.744,4.47 -1.393,7.71 5.64,8.93" />
      <path
         style="fill:#fb0f0c"
         inkscape:connector-curvature="0"
         id="path8372"
         d="m 75.2857,613.32135 c -6.82,3.723 -14.23,8.288 -21.782,10.266 -6.88,1.8 -19.885,0.06 -21.136,-9.162 -1.208,-8.9 11.193,-12.897 17.887,-12.11 8.35,0.986 17.1,6.686 24.41,10.658 0.205,0.11 0.417,0.238 0.62,0.348" />
      <path
         style="fill:#fb0f0c"
         inkscape:connector-curvature="0"
         id="path8374"
         d="m 75.2857,613.21935 c -2.926,9.384 -11.952,45.177 -28.228,36.717 -7.918,-4.12 -1.55,-17.742 2.603,-22.38 5.864,-6.532 15.57,-9.97 23.422,-13.393 0.73,-0.32 1.473,-0.63 2.203,-0.944" />
      <path
         style="fill:#fb0f0c"
         inkscape:connector-curvature="0"
         id="path8376"
         d="m 75.2857,613.21935 c -2.926,-9.386 -11.952,-45.18 -28.228,-36.716 -7.918,4.118 -1.55,17.742 2.603,22.376 5.864,6.537 15.568,9.974 23.422,13.4 0.73,0.316 1.473,0.626 2.203,0.94" />
      <path
         style="fill:#fb0f0c"
         inkscape:connector-curvature="0"
         id="path8378"
         d="m 76.0977,635.08435 c -1.323,6.067 -1.596,15.157 3.66,19.584 3.424,2.89 12.264,1.94 10.227,-4.534 -0.377,-1.194 -4.493,-2.454 -5.512,-3.917 -2.117,-3.04 -1.81,-8.723 -2.01,-12.226 -0.274,-4.883 0.166,-9.915 -0.39,-14.746 -0.02,-0.007 -0.042,-0.014 -0.06,-0.028 -2.74,4.752 -4.71,10.482 -5.916,15.865" />
      <path
         style="fill:#fb0f0c"
         inkscape:connector-curvature="0"
         id="path8380"
         d="m 76.0957,592.36335 c -1.318,-6.073 -1.6,-15.16 3.66,-19.596 3.42,-2.884 12.273,-1.938 10.227,4.537 -0.376,1.188 -4.494,2.444 -5.51,3.91 -2.118,3.04 -1.812,8.722 -2.01,12.224 -0.273,4.865 0.238,10.015 -0.428,14.78 -2.79,-4.634 -4.745,-10.52 -5.94,-15.856" />
      <path
         style="fill:#fb0f0c"
         inkscape:connector-curvature="0"
         id="path8382"
         d="m 90.5807,619.21935 c 6.776,-1.6 3.887,-16.367 -5.65,-8.91 -5.72,4.474 -1.396,7.725 5.65,8.91" />
      <path
         style="fill:none;stroke:#000000;stroke-width:0.5"
         inkscape:connector-curvature="0"
         id="path8384"
         d="m 263.2857,704.21935 0.107,0" />
      <path
         style="fill:#fb0f0c;stroke:#fb0f0c;stroke-width:0.5"
         inkscape:connector-curvature="0"
         id="path8386"
         d="m 272.2857,580.34335 c 5.92,0 57.503,-0.49 57.503,0.484 l 0,55.663 c 0,1.56 1.12,9.196 0,10.4 -3.66,3.945 -57.503,-2.323 -57.503,-0.482 l 0,-66.064" />
      <path
         style="fill:#ffffff"
         inkscape:connector-curvature="0"
         id="path8388"
         d="m 275.2857,592.21935 7.334,-8 3.666,12 -11,-4" />
      <path
         style="fill:#ffffff"
         inkscape:connector-curvature="0"
         id="path8390"
         d="m 318.9557,584.21935 c 2.442,2.665 4.89,5.332 7.33,8 l -11,4 c 1.224,-4 2.448,-8 3.67,-12" />
      <path
         style="fill:#ffffff"
         inkscape:connector-curvature="0"
         id="path8392"
         d="m 318.9497,642.21935 c 2.444,-2.667 4.888,-5.333 7.336,-8 -3.67,-1.333 -7.336,-2.667 -11,-4 1.22,4 2.44,8 3.664,12" />
      <path
         style="fill:#ffffff"
         inkscape:connector-curvature="0"
         id="path8394"
         d="m 282.6197,642.21935 c -2.444,-2.667 -4.888,-5.33 -7.334,-8 l 11,-4 -3.666,12" />
      <path
         style="fill:#ffffff"
         inkscape:connector-curvature="0"
         id="path8396"
         d="m 301.2857,580.21935 c -2.39,8.16 -4.78,16.315 -7.168,24.472 -0.89,3.037 -18.367,7.215 -21.832,8.527 3.465,1.315 20.942,5.49 21.832,8.53 2.39,8.153 4.78,16.313 7.17,24.47 2.39,-8.157 4.778,-16.317 7.166,-24.47 0.892,-3.04 18.37,-7.215 21.832,-8.53 -3.463,-1.313 -20.94,-5.49 -21.832,-8.528 -2.388,-8.157 -4.776,-16.313 -7.167,-24.472" />
      <path
         style="fill:#ffffff;stroke:#ffffff;stroke-width:0.5"
         inkscape:connector-curvature="0"
         id="path8398"
         d="m 477.2857,593.21935 c -1.174,5.47 -2.344,10.938 -3.517,16.407 -0.408,1.906 -12.276,3.948 -14.483,4.59 2.207,0.648 14.075,2.688 14.483,4.592 1.173,5.468 2.343,10.937 3.517,16.41 1.17,-5.473 2.344,-10.942 3.517,-16.41 0.408,-1.905 12.276,-3.945 14.483,-4.592 -2.207,-0.643 -14.075,-2.685 -14.483,-4.59 -1.173,-5.47 -2.347,-10.94 -3.517,-16.408" />
      <path
         style="fill:#ffffff;stroke:#ffffff;stroke-width:0.5"
         inkscape:connector-curvature="0"
         id="path8400"
         d="m 477.2837,534.21935 c -1.17,5.47 -2.343,10.938 -3.513,16.41 -0.408,1.904 -12.275,3.946 -14.485,4.59 2.21,0.644 14.077,2.684 14.485,4.59 l 3.513,16.41 3.52,-16.41 c 0.408,-1.906 12.276,-3.946 14.482,-4.59 -2.206,-0.644 -14.074,-2.686 -14.48,-4.59 l -3.522,-16.41" />
      <path
         style="fill:#ffffff;stroke:#ffffff;stroke-width:0.5"
         inkscape:connector-curvature="0"
         id="path8402"
         d="m 477.2837,651.21935 c -1.173,5.47 -2.343,10.938 -3.513,16.407 -0.41,1.905 -12.275,3.948 -14.485,4.59 2.206,0.644 14.074,2.688 14.485,4.592 1.17,5.468 2.34,10.937 3.513,16.41 1.174,-5.473 2.347,-10.942 3.517,-16.41 0.41,-1.905 12.28,-3.95 14.485,-4.592 -2.206,-0.643 -14.074,-2.686 -14.485,-4.59 -1.17,-5.47 -2.343,-10.94 -3.517,-16.408" />
      <path
         style="fill:#ffffff;stroke:#ffffff;stroke-width:0.5"
         inkscape:connector-curvature="0"
         id="path8404"
         d="m 426.2857,593.21935 c -1.17,5.47 -2.344,10.938 -3.517,16.407 -0.408,1.906 -12.276,3.948 -14.483,4.59 2.207,0.648 14.075,2.688 14.483,4.592 1.173,5.468 2.347,10.937 3.517,16.41 1.174,-5.473 2.344,-10.942 3.517,-16.41 0.408,-1.905 12.276,-3.945 14.483,-4.592 -2.207,-0.643 -14.075,-2.685 -14.483,-4.59 -1.173,-5.47 -2.343,-10.94 -3.517,-16.408" />
      <path
         style="fill:#ffffff;stroke:#ffffff;stroke-width:0.5"
         inkscape:connector-curvature="0"
         id="path8406"
         d="m 426.2857,534.21935 c -1.17,5.47 -2.344,10.938 -3.517,16.41 -0.408,1.904 -12.276,3.946 -14.483,4.59 2.207,0.644 14.075,2.684 14.483,4.59 1.173,5.47 2.347,10.94 3.517,16.41 1.174,-5.47 2.344,-10.94 3.517,-16.41 0.408,-1.906 12.276,-3.946 14.483,-4.59 -2.207,-0.644 -14.075,-2.686 -14.483,-4.59 -1.173,-5.472 -2.343,-10.94 -3.517,-16.41" />
      <path
         style="fill:#ffffff;stroke:#ffffff;stroke-width:0.5"
         inkscape:connector-curvature="0"
         id="path8408"
         d="m 427.2837,651.21935 c -1.17,5.47 -2.34,10.938 -3.513,16.407 -0.408,1.905 -12.275,3.948 -14.485,4.59 2.21,0.644 14.077,2.688 14.485,4.592 1.173,5.468 2.343,10.937 3.513,16.41 l 3.52,-16.41 c 0.408,-1.905 12.276,-3.95 14.482,-4.592 -2.206,-0.643 -14.074,-2.686 -14.482,-4.59 l -3.52,-16.408" />
      <path
         style="fill:#ffffff;stroke:#ffffff;stroke-width:0.5"
         inkscape:connector-curvature="0"
         id="path8410"
         d="m 326.2817,763.21935 c -1.17,5.47 -2.34,10.94 -3.513,16.412 -0.408,1.905 -12.276,3.945 -14.483,4.588 2.207,0.643 14.075,2.687 14.483,4.595 1.173,5.466 2.343,10.94 3.513,16.405 1.174,-5.466 2.348,-10.94 3.52,-16.405 0.41,-1.908 12.277,-3.952 14.484,-4.595 -2.207,-0.643 -14.075,-2.683 -14.483,-4.588 l -3.52,-16.412" />
      <path
         style="fill:#ffffff;stroke:#ffffff;stroke-width:0.5"
         inkscape:connector-curvature="0"
         id="path8412"
         d="m 275.2857,763.21935 -3.515,16.412 c -0.41,1.905 -12.277,3.945 -14.485,4.588 2.208,0.643 14.076,2.687 14.485,4.595 1.172,5.466 2.343,10.94 3.515,16.405 1.173,-5.466 2.345,-10.94 3.517,-16.405 0.41,-1.908 12.277,-3.952 14.483,-4.595 -2.206,-0.643 -14.074,-2.683 -14.483,-4.588 -1.172,-5.473 -2.344,-10.943 -3.517,-16.412" />
      <path
         style="fill:#ffffff;stroke:#ffffff;stroke-width:0.5"
         inkscape:connector-curvature="0"
         id="path8414"
         d="m 376.2877,763.21935 c -1.174,5.473 -2.347,10.942 -3.517,16.41 -0.408,1.905 -12.28,3.945 -14.485,4.592 2.206,0.643 14.077,2.686 14.485,4.59 1.17,5.47 2.343,10.94 3.517,16.408 1.173,-5.47 2.343,-10.938 3.513,-16.407 0.41,-1.905 12.275,-3.948 14.485,-4.59 -2.21,-0.648 -14.074,-2.688 -14.485,-4.592 -1.17,-5.468 -2.34,-10.937 -3.513,-16.41" />
      <path
         style="fill:#ffffff;stroke:#ffffff;stroke-width:0.5"
         inkscape:connector-curvature="0"
         id="path8416"
         d="m 225.2857,763.21935 -3.516,16.408 c -0.408,1.91 -12.276,3.95 -14.484,4.592 2.208,0.643 14.076,2.683 14.484,4.592 l 3.516,16.408 c 1.173,-5.47 2.344,-10.94 3.518,-16.408 0.407,-1.91 12.276,-3.95 14.482,-4.592 -2.206,-0.643 -14.075,-2.683 -14.482,-4.592 -1.174,-5.47 -2.345,-10.94 -3.52,-16.408" />
      <path
         style="fill:#ffffff;stroke:#ffffff;stroke-width:0.5"
         inkscape:connector-curvature="0"
         id="path8418"
         d="m 477.2857,763.21935 c -1.173,5.473 -2.343,10.94 -3.513,16.412 -0.41,1.905 -12.277,3.945 -14.487,4.592 2.21,0.64 14.076,2.683 14.487,4.59 1.17,5.467 2.34,10.94 3.513,16.406 1.173,-5.466 2.343,-10.94 3.516,-16.405 0.408,-1.908 12.274,-3.952 14.484,-4.59 -2.21,-0.648 -14.076,-2.688 -14.484,-4.593 l -3.516,-16.412" />
      <path
         style="fill:#ffffff;stroke:#ffffff;stroke-width:0.5"
         inkscape:connector-curvature="0"
         id="path8420"
         d="m 426.2837,763.21935 c -1.17,5.473 -2.343,10.94 -3.513,16.412 -0.41,1.905 -12.275,3.945 -14.485,4.592 2.21,0.64 14.074,2.683 14.485,4.59 l 3.513,16.406 c 1.174,-5.466 2.347,-10.94 3.52,-16.405 0.408,-1.908 12.276,-3.952 14.482,-4.59 -2.206,-0.648 -14.074,-2.688 -14.48,-4.593 l -3.523,-16.412" />
      <path
         style="fill:#ffffff;stroke:#ffffff;stroke-width:0.5"
         inkscape:connector-curvature="0"
         id="path8422"
         d="m 326.2817,821.21935 c -1.17,5.47 -2.34,10.94 -3.513,16.408 -0.408,1.905 -12.276,3.95 -14.483,4.592 2.207,0.643 14.075,2.683 14.483,4.592 1.173,5.47 2.343,10.94 3.513,16.408 1.174,-5.47 2.348,-10.94 3.52,-16.408 0.41,-1.91 12.277,-3.95 14.484,-4.592 -2.207,-0.643 -14.075,-2.687 -14.483,-4.592 l -3.52,-16.408" />
      <path
         style="fill:#ffffff;stroke:#ffffff;stroke-width:0.5"
         inkscape:connector-curvature="0"
         id="path8424"
         d="m 275.2857,821.21935 -3.515,16.408 c -0.41,1.905 -12.277,3.95 -14.485,4.592 2.208,0.643 14.076,2.683 14.485,4.592 l 3.515,16.408 3.517,-16.408 c 0.41,-1.91 12.277,-3.95 14.483,-4.592 -2.206,-0.643 -14.074,-2.687 -14.483,-4.592 l -3.517,-16.408" />
      <path
         style="fill:#ffffff;stroke:#ffffff;stroke-width:0.5"
         inkscape:connector-curvature="0"
         id="path8426"
         d="m 376.2877,821.21935 c -1.174,5.47 -2.347,10.94 -3.517,16.412 -0.408,1.905 -12.28,3.945 -14.485,4.592 2.206,0.64 14.077,2.683 14.485,4.59 1.17,5.467 2.343,10.94 3.517,16.406 1.173,-5.466 2.343,-10.94 3.513,-16.405 0.41,-1.908 12.275,-3.952 14.485,-4.59 -2.21,-0.648 -14.074,-2.688 -14.485,-4.593 -1.17,-5.473 -2.34,-10.943 -3.513,-16.412" />
      <path
         style="fill:#ffffff;stroke:#ffffff;stroke-width:0.5"
         inkscape:connector-curvature="0"
         id="path8428"
         d="m 225.2857,821.21935 -3.516,16.408 c -0.408,1.905 -12.276,3.95 -14.484,4.592 2.208,0.643 14.076,2.683 14.484,4.592 l 3.516,16.408 c 1.173,-5.47 2.344,-10.94 3.518,-16.408 0.407,-1.91 12.276,-3.95 14.482,-4.592 -2.206,-0.643 -14.075,-2.687 -14.482,-4.592 -1.174,-5.47 -2.345,-10.94 -3.52,-16.408" />
      <path
         style="fill:#ffffff;stroke:#ffffff;stroke-width:0.5"
         inkscape:connector-curvature="0"
         id="path8430"
         d="m 477.2857,821.21935 c -1.173,5.47 -2.343,10.94 -3.513,16.408 -0.41,1.91 -12.277,3.95 -14.487,4.592 2.21,0.643 14.076,2.687 14.487,4.592 1.17,5.47 2.34,10.94 3.513,16.408 1.173,-5.47 2.343,-10.94 3.516,-16.408 0.408,-1.905 12.274,-3.95 14.484,-4.592 -2.21,-0.643 -14.076,-2.683 -14.484,-4.592 -1.173,-5.47 -2.343,-10.94 -3.516,-16.408" />
      <path
         style="fill:#ffffff;stroke:#ffffff;stroke-width:0.5"
         inkscape:connector-curvature="0"
         id="path8432"
         d="m 426.2837,821.21935 c -1.17,5.47 -2.343,10.94 -3.513,16.408 -0.41,1.91 -12.275,3.95 -14.485,4.592 2.21,0.643 14.074,2.687 14.485,4.592 1.17,5.47 2.343,10.94 3.513,16.408 l 3.52,-16.408 c 0.408,-1.905 12.276,-3.95 14.482,-4.592 -2.206,-0.643 -14.074,-2.683 -14.48,-4.592 l -3.523,-16.408" />
      <path
         style="fill:#ffffff;stroke:#ffffff;stroke-width:0.5"
         inkscape:connector-curvature="0"
         id="path8434"
         d="m 326.2817,879.21935 c -1.17,5.466 -2.34,10.94 -3.513,16.408 -0.408,1.905 -12.276,3.95 -14.483,4.588 2.207,0.647 14.075,2.687 14.483,4.592 1.173,5.473 2.343,10.94 3.513,16.412 1.174,-5.473 2.348,-10.94 3.52,-16.412 0.41,-1.905 12.277,-3.945 14.484,-4.592 -2.207,-0.64 -14.075,-2.683 -14.483,-4.588 l -3.52,-16.408" />
      <path
         style="fill:#ffffff;stroke:#ffffff;stroke-width:0.5"
         inkscape:connector-curvature="0"
         id="path8436"
         d="m 275.2857,879.21935 c -1.172,5.466 -2.343,10.94 -3.515,16.408 -0.41,1.905 -12.277,3.95 -14.485,4.588 2.208,0.647 14.076,2.687 14.485,4.592 l 3.515,16.412 3.517,-16.412 c 0.41,-1.905 12.277,-3.945 14.483,-4.592 -2.206,-0.64 -14.074,-2.683 -14.483,-4.588 -1.172,-5.47 -2.344,-10.942 -3.517,-16.408" />
      <path
         style="fill:#ffffff;stroke:#ffffff;stroke-width:0.5"
         inkscape:connector-curvature="0"
         id="path8438"
         d="m 376.2877,879.21935 c -1.174,5.47 -2.347,10.94 -3.517,16.412 -0.408,1.905 -12.28,3.945 -14.485,4.588 2.206,0.643 14.077,2.683 14.485,4.592 1.17,5.47 2.343,10.94 3.517,16.408 1.173,-5.47 2.343,-10.94 3.513,-16.408 0.41,-1.91 12.275,-3.95 14.485,-4.592 -2.21,-0.643 -14.074,-2.683 -14.485,-4.588 -1.17,-5.473 -2.34,-10.943 -3.513,-16.412" />
      <path
         style="fill:#ffffff;stroke:#ffffff;stroke-width:0.5"
         inkscape:connector-curvature="0"
         id="path8440"
         d="m 225.2857,879.21935 c -1.173,5.466 -2.344,10.94 -3.516,16.405 -0.408,1.905 -12.276,3.948 -14.484,4.59 2.208,0.648 14.076,2.688 14.484,4.593 l 3.516,16.412 c 1.173,-5.473 2.344,-10.94 3.518,-16.412 0.407,-1.905 12.276,-3.945 14.482,-4.592 -2.206,-0.643 -14.075,-2.686 -14.482,-4.59 -1.174,-5.467 -2.345,-10.94 -3.52,-16.406" />
      <path
         style="fill:#ffffff;stroke:#ffffff;stroke-width:0.5"
         inkscape:connector-curvature="0"
         id="path8442"
         d="m 477.2857,879.21935 c -1.173,5.466 -2.343,10.94 -3.513,16.408 -0.41,1.905 -12.277,3.95 -14.487,4.592 2.21,0.643 14.076,2.683 14.487,4.588 1.17,5.473 2.34,10.94 3.513,16.412 l 3.516,-16.412 c 0.408,-1.905 12.274,-3.945 14.484,-4.588 -2.21,-0.643 -14.076,-2.687 -14.484,-4.592 -1.173,-5.47 -2.343,-10.942 -3.516,-16.408" />
      <path
         style="fill:#ffffff;stroke:#ffffff;stroke-width:0.5"
         inkscape:connector-curvature="0"
         id="path8444"
         d="m 426.2837,879.21935 -3.513,16.408 c -0.41,1.905 -12.275,3.95 -14.485,4.592 2.21,0.643 14.074,2.683 14.485,4.588 1.17,5.473 2.343,10.94 3.513,16.412 l 3.52,-16.412 c 0.408,-1.905 12.276,-3.945 14.482,-4.588 -2.206,-0.643 -14.074,-2.687 -14.48,-4.592 l -3.523,-16.408" />
      <path
         style="fill:#ffffff;stroke:#ffffff;stroke-width:0.5"
         inkscape:connector-curvature="0"
         id="path8446"
         d="m 326.2817,709.21935 c -1.17,5.473 -2.34,10.94 -3.513,16.412 -0.408,1.905 -12.276,3.945 -14.483,4.592 2.207,0.643 14.075,2.683 14.483,4.59 1.173,5.467 2.343,10.94 3.513,16.406 1.174,-5.466 2.348,-10.94 3.52,-16.405 0.41,-1.908 12.277,-3.952 14.484,-4.59 -2.207,-0.648 -14.075,-2.688 -14.483,-4.593 l -3.52,-16.412" />
      <path
         style="fill:#ffffff;stroke:#ffffff;stroke-width:0.5"
         inkscape:connector-curvature="0"
         id="path8448"
         d="m 275.2857,709.21935 -3.515,16.412 c -0.41,1.905 -12.277,3.945 -14.485,4.592 2.208,0.64 14.076,2.683 14.485,4.59 l 3.515,16.406 c 1.173,-5.466 2.345,-10.94 3.517,-16.405 0.41,-1.908 12.277,-3.952 14.483,-4.59 -2.206,-0.648 -14.074,-2.688 -14.483,-4.593 l -3.517,-16.412" />
      <path
         style="fill:#ffffff;stroke:#ffffff;stroke-width:0.5"
         inkscape:connector-curvature="0"
         id="path8450"
         d="m 376.2877,709.21935 c -1.174,5.47 -2.347,10.94 -3.517,16.408 -0.408,1.905 -12.28,3.95 -14.485,4.592 2.206,0.643 14.077,2.687 14.485,4.592 1.17,5.47 2.343,10.94 3.517,16.408 1.173,-5.47 2.343,-10.94 3.513,-16.408 0.41,-1.905 12.275,-3.95 14.485,-4.592 -2.21,-0.643 -14.074,-2.687 -14.485,-4.592 -1.17,-5.47 -2.34,-10.94 -3.513,-16.408" />
      <path
         style="fill:#ffffff;stroke:#ffffff;stroke-width:0.5"
         inkscape:connector-curvature="0"
         id="path8452"
         d="m 225.2857,709.21935 c -1.173,5.47 -2.344,10.94 -3.516,16.412 -0.408,1.905 -12.276,3.945 -14.484,4.588 2.208,0.643 14.076,2.687 14.484,4.595 1.172,5.466 2.343,10.94 3.515,16.405 1.173,-5.466 2.344,-10.94 3.518,-16.405 0.407,-1.908 12.276,-3.952 14.482,-4.595 -2.206,-0.643 -14.075,-2.683 -14.482,-4.588 -1.174,-5.473 -2.345,-10.943 -3.52,-16.412" />
      <path
         style="fill:#ffffff;stroke:#ffffff;stroke-width:0.5"
         inkscape:connector-curvature="0"
         id="path8454"
         d="m 477.2857,709.21935 c -1.173,5.473 -2.343,10.938 -3.513,16.41 -0.41,1.905 -12.277,3.945 -14.487,4.592 2.21,0.643 14.076,2.683 14.487,4.59 1.17,5.466 2.34,10.94 3.513,16.408 1.173,-5.47 2.343,-10.942 3.516,-16.407 0.408,-1.908 12.274,-3.948 14.484,-4.59 -2.21,-0.648 -14.076,-2.688 -14.484,-4.592 l -3.516,-16.411" />
      <path
         style="fill:#ffffff;stroke:#ffffff;stroke-width:0.5"
         inkscape:connector-curvature="0"
         id="path8456"
         d="m 426.2837,709.21935 c -1.17,5.473 -2.343,10.938 -3.513,16.41 -0.41,1.905 -12.275,3.945 -14.485,4.592 2.21,0.643 14.074,2.683 14.485,4.59 l 3.513,16.408 3.52,-16.407 c 0.408,-1.908 12.276,-3.948 14.482,-4.59 -2.206,-0.648 -14.074,-2.688 -14.48,-4.592 l -3.522,-16.41" />
      <path
         style="fill:#ffffff;stroke:#ffffff;stroke-width:0.5"
         inkscape:connector-curvature="0"
         id="path8458"
         d="m 275.2857,476.21935 -3.515,16.408 c -0.41,1.907 -12.277,3.95 -14.485,4.592 2.208,0.643 14.076,2.685 14.485,4.592 l 3.515,16.408 3.517,-16.408 c 0.41,-1.907 12.277,-3.95 14.483,-4.592 -2.206,-0.643 -14.074,-2.685 -14.483,-4.592 l -3.517,-16.408" />
      <path
         style="fill:#ffffff;stroke:#ffffff;stroke-width:0.5"
         inkscape:connector-curvature="0"
         id="path8460"
         d="m 225.2857,476.21935 -3.515,16.408 c -0.408,1.907 -12.277,3.95 -14.485,4.592 2.208,0.643 14.077,2.685 14.485,4.592 l 3.515,16.408 3.517,-16.408 c 0.41,-1.907 12.277,-3.95 14.483,-4.592 -2.206,-0.643 -14.074,-2.685 -14.483,-4.592 l -3.517,-16.408" />
      <path
         style="fill:#ffffff;stroke:#ffffff;stroke-width:0.5"
         inkscape:connector-curvature="0"
         id="path8462"
         d="m 376.2837,476.21935 c -1.17,5.47 -2.34,10.94 -3.513,16.408 -0.408,1.907 -12.275,3.95 -14.485,4.592 2.21,0.643 14.077,2.685 14.485,4.592 1.173,5.47 2.343,10.94 3.513,16.408 l 3.52,-16.408 c 0.408,-1.907 12.276,-3.95 14.482,-4.592 -2.206,-0.643 -14.074,-2.685 -14.482,-4.592 l -3.52,-16.408" />
      <path
         style="fill:#ffffff;stroke:#ffffff;stroke-width:0.5"
         inkscape:connector-curvature="0"
         id="path8464"
         d="m 326.2877,476.21935 c -1.174,5.47 -2.347,10.94 -3.517,16.408 -0.408,1.907 -12.275,3.95 -14.485,4.592 2.21,0.643 14.077,2.685 14.485,4.592 1.17,5.47 2.343,10.94 3.517,16.408 1.173,-5.47 2.343,-10.94 3.516,-16.408 0.408,-1.907 12.276,-3.95 14.482,-4.592 -2.206,-0.643 -14.074,-2.685 -14.482,-4.592 -1.173,-5.47 -2.343,-10.94 -3.516,-16.408" />
      <path
         style="fill:#ffffff;stroke:#ffffff;stroke-width:0.5"
         inkscape:connector-curvature="0"
         id="path8466"
         d="m 225.2857,418.21935 c -1.17,5.47 -2.344,10.938 -3.516,16.408 -0.41,1.906 -12.276,3.948 -14.484,4.59 2.208,0.646 14.076,2.686 14.484,4.593 l 3.516,16.409 c 1.173,-5.47 2.344,-10.94 3.518,-16.41 0.407,-1.906 12.276,-3.946 14.482,-4.59 -2.206,-0.644 -14.075,-2.686 -14.482,-4.592 -1.174,-5.47 -2.345,-10.94 -3.517,-16.408" />
      <path
         style="fill:#ffffff;stroke:#ffffff;stroke-width:0.5"
         inkscape:connector-curvature="0"
         id="path8468"
         d="m 275.2857,418.21935 -3.515,16.41 c -0.41,1.906 -12.277,3.946 -14.485,4.59 2.208,0.644 14.076,2.686 14.485,4.592 l 3.515,16.408 3.517,-16.408 c 0.41,-1.906 12.277,-3.948 14.483,-4.59 -2.206,-0.646 -14.074,-2.686 -14.483,-4.593 l -3.517,-16.409" />
      <path
         style="fill:#ffffff;stroke:#ffffff;stroke-width:0.5"
         inkscape:connector-curvature="0"
         id="path8470"
         d="m 326.2817,418.21935 c -1.17,5.47 -2.34,10.94 -3.513,16.41 -0.408,1.906 -12.276,3.946 -14.483,4.59 2.207,0.644 14.075,2.686 14.483,4.592 1.173,5.47 2.343,10.94 3.513,16.408 1.174,-5.47 2.348,-10.938 3.52,-16.408 0.41,-1.906 12.277,-3.948 14.484,-4.59 -2.207,-0.646 -14.075,-2.686 -14.483,-4.593 l -3.52,-16.41" />
      <path
         style="fill:#ffffff;stroke:#ffffff;stroke-width:0.5"
         inkscape:connector-curvature="0"
         id="path8472"
         d="m 376.2857,418.21935 c -1.173,5.47 -2.347,10.94 -3.516,16.41 -0.408,1.906 -12.274,3.946 -14.484,4.59 2.21,0.644 14.076,2.686 14.484,4.592 1.17,5.47 2.343,10.94 3.516,16.408 l 3.516,-16.408 c 0.408,-1.906 12.274,-3.948 14.484,-4.59 -2.21,-0.646 -14.076,-2.686 -14.484,-4.593 l -3.516,-16.409" />
      <path
         style="fill:#ffffff;stroke:#ffffff;stroke-width:0.5"
         inkscape:connector-curvature="0"
         id="path8474"
         d="m 477.2857,476.21935 c -1.17,5.47 -2.344,10.938 -3.517,16.41 -0.408,1.906 -12.276,3.946 -14.483,4.59 2.207,0.644 14.075,2.686 14.483,4.59 1.173,5.47 2.347,10.94 3.517,16.41 1.17,-5.47 2.344,-10.94 3.517,-16.41 0.408,-1.904 12.276,-3.946 14.483,-4.59 -2.207,-0.644 -14.075,-2.684 -14.483,-4.59 -1.173,-5.472 -2.347,-10.94 -3.517,-16.41" />
      <path
         style="fill:#ffffff;stroke:#ffffff;stroke-width:0.5"
         inkscape:connector-curvature="0"
         id="path8476"
         d="m 477.2857,418.21935 c -1.174,5.47 -2.344,10.94 -3.517,16.41 -0.408,1.906 -12.276,3.946 -14.483,4.59 2.207,0.644 14.075,2.686 14.483,4.592 1.173,5.47 2.343,10.94 3.517,16.408 1.17,-5.47 2.344,-10.938 3.517,-16.408 0.408,-1.906 12.276,-3.948 14.483,-4.59 -2.207,-0.646 -14.075,-2.686 -14.483,-4.593 -1.173,-5.47 -2.347,-10.94 -3.517,-16.41" />
      <path
         style="fill:#ffffff;stroke:#ffffff;stroke-width:0.5"
         inkscape:connector-curvature="0"
         id="path8478"
         d="m 426.2877,476.21935 c -1.174,5.47 -2.347,10.938 -3.517,16.41 -0.408,1.906 -12.275,3.946 -14.485,4.59 2.21,0.644 14.077,2.686 14.485,4.59 1.17,5.47 2.343,10.94 3.517,16.41 1.173,-5.47 2.343,-10.94 3.513,-16.41 0.41,-1.904 12.28,-3.946 14.485,-4.59 -2.206,-0.644 -14.074,-2.684 -14.485,-4.59 -1.17,-5.472 -2.34,-10.94 -3.513,-16.41" />
      <path
         style="fill:#ffffff;stroke:#ffffff;stroke-width:0.5"
         inkscape:connector-curvature="0"
         id="path8480"
         d="m 426.2857,418.21935 c -1.17,5.47 -2.344,10.94 -3.517,16.41 -0.408,1.906 -12.276,3.946 -14.483,4.59 2.207,0.644 14.075,2.686 14.483,4.592 1.173,5.47 2.347,10.94 3.517,16.408 1.174,-5.47 2.344,-10.938 3.517,-16.408 0.408,-1.906 12.276,-3.948 14.483,-4.59 -2.207,-0.646 -14.075,-2.686 -14.483,-4.593 -1.173,-5.47 -2.343,-10.94 -3.517,-16.41" />
      <path
         style="fill:#ffffff;stroke:#ffffff;stroke-width:0.5"
         inkscape:connector-curvature="0"
         id="path8482"
         d="m 275.2857,360.21935 -3.515,16.41 c -0.41,1.904 -12.277,3.946 -14.485,4.59 2.208,0.644 14.076,2.684 14.485,4.59 l 3.515,16.41 3.517,-16.41 c 0.41,-1.906 12.277,-3.946 14.483,-4.59 -2.206,-0.644 -14.074,-2.686 -14.483,-4.59 l -3.517,-16.41" />
      <path
         style="fill:#ffffff;stroke:#ffffff;stroke-width:0.5"
         inkscape:connector-curvature="0"
         id="path8484"
         d="m 225.2857,360.21935 -3.515,16.41 c -0.408,1.904 -12.277,3.946 -14.485,4.59 2.208,0.644 14.077,2.684 14.485,4.59 l 3.515,16.41 3.517,-16.41 c 0.41,-1.906 12.277,-3.946 14.483,-4.59 -2.206,-0.644 -14.074,-2.686 -14.483,-4.59 l -3.517,-16.41" />
      <path
         style="fill:#ffffff;stroke:#ffffff;stroke-width:0.5"
         inkscape:connector-curvature="0"
         id="path8486"
         d="m 376.2837,360.21935 c -1.17,5.47 -2.34,10.938 -3.513,16.41 -0.408,1.904 -12.275,3.946 -14.485,4.59 2.21,0.644 14.077,2.684 14.485,4.59 1.173,5.47 2.343,10.94 3.513,16.41 l 3.52,-16.41 c 0.408,-1.906 12.276,-3.946 14.482,-4.59 -2.206,-0.644 -14.074,-2.686 -14.482,-4.59 l -3.52,-16.41" />
      <path
         style="fill:#ffffff;stroke:#ffffff;stroke-width:0.5"
         inkscape:connector-curvature="0"
         id="path8488"
         d="m 326.2877,360.21935 c -1.174,5.47 -2.347,10.938 -3.517,16.41 -0.408,1.904 -12.275,3.946 -14.485,4.59 2.21,0.644 14.077,2.684 14.485,4.59 1.17,5.47 2.343,10.94 3.517,16.41 l 3.516,-16.41 c 0.408,-1.906 12.276,-3.946 14.482,-4.59 -2.206,-0.644 -14.074,-2.686 -14.482,-4.59 l -3.516,-16.41" />
      <path
         style="fill:#ffffff;stroke:#ffffff;stroke-width:0.5"
         inkscape:connector-curvature="0"
         id="path8490"
         d="m 225.2857,302.21935 c -1.17,5.47 -2.344,10.94 -3.516,16.408 -0.408,1.907 -12.276,3.95 -14.484,4.592 2.208,0.645 14.075,2.687 14.484,4.592 l 3.516,16.408 c 1.173,-5.47 2.344,-10.94 3.518,-16.408 0.407,-1.905 12.276,-3.947 14.482,-4.592 -2.206,-0.643 -14.075,-2.685 -14.482,-4.592 -1.174,-5.47 -2.345,-10.94 -3.517,-16.408" />
      <path
         style="fill:#ffffff;stroke:#ffffff;stroke-width:0.5"
         inkscape:connector-curvature="0"
         id="path8492"
         d="m 275.2857,302.21935 -3.515,16.408 c -0.41,1.907 -12.277,3.95 -14.485,4.592 2.208,0.643 14.076,2.685 14.485,4.592 l 3.515,16.408 3.517,-16.408 c 0.41,-1.907 12.277,-3.95 14.483,-4.592 -2.206,-0.643 -14.074,-2.685 -14.483,-4.592 l -3.517,-16.408" />
      <path
         style="fill:#ffffff;stroke:#ffffff;stroke-width:0.5"
         inkscape:connector-curvature="0"
         id="path8494"
         d="m 326.2817,302.21935 c -1.17,5.47 -2.34,10.94 -3.513,16.408 -0.408,1.907 -12.276,3.95 -14.483,4.592 2.207,0.643 14.075,2.685 14.483,4.592 1.173,5.47 2.343,10.94 3.513,16.408 1.174,-5.47 2.348,-10.94 3.52,-16.408 0.41,-1.907 12.277,-3.95 14.484,-4.592 -2.207,-0.643 -14.075,-2.685 -14.483,-4.592 l -3.52,-16.408" />
      <path
         style="fill:#ffffff;stroke:#ffffff;stroke-width:0.5"
         inkscape:connector-curvature="0"
         id="path8496"
         d="m 376.2857,302.21935 c -1.173,5.47 -2.347,10.94 -3.516,16.408 -0.408,1.907 -12.274,3.95 -14.484,4.592 2.21,0.643 14.076,2.685 14.484,4.592 1.17,5.47 2.343,10.94 3.516,16.408 1.173,-5.47 2.343,-10.94 3.516,-16.408 0.408,-1.907 12.274,-3.95 14.484,-4.592 -2.21,-0.643 -14.076,-2.685 -14.484,-4.592 -1.173,-5.47 -2.343,-10.94 -3.516,-16.408" />
      <path
         style="fill:#ffffff;stroke:#ffffff;stroke-width:0.5"
         inkscape:connector-curvature="0"
         id="path8498"
         d="m 477.2857,360.21935 c -1.17,5.47 -2.344,10.94 -3.517,16.408 -0.408,1.907 -12.276,3.95 -14.483,4.592 2.207,0.643 14.075,2.685 14.483,4.592 1.173,5.47 2.347,10.94 3.517,16.408 1.17,-5.47 2.344,-10.94 3.517,-16.408 0.408,-1.907 12.276,-3.95 14.483,-4.592 -2.207,-0.643 -14.075,-2.685 -14.483,-4.592 -1.173,-5.47 -2.347,-10.94 -3.517,-16.408" />
      <path
         style="fill:#ffffff;stroke:#ffffff;stroke-width:0.5"
         inkscape:connector-curvature="0"
         id="path8500"
         d="m 477.2857,302.21935 c -1.174,5.47 -2.344,10.94 -3.517,16.408 -0.408,1.907 -12.276,3.95 -14.483,4.592 2.207,0.643 14.075,2.685 14.483,4.592 1.173,5.47 2.343,10.94 3.517,16.408 1.17,-5.47 2.344,-10.94 3.517,-16.408 0.408,-1.907 12.276,-3.95 14.483,-4.592 -2.207,-0.643 -14.075,-2.685 -14.483,-4.592 -1.173,-5.47 -2.347,-10.94 -3.517,-16.408" />
      <path
         style="fill:#ffffff;stroke:#ffffff;stroke-width:0.5"
         inkscape:connector-curvature="0"
         id="path8502"
         d="m 426.2877,360.21935 c -1.174,5.47 -2.347,10.94 -3.517,16.408 -0.408,1.907 -12.275,3.95 -14.485,4.592 2.21,0.643 14.077,2.685 14.485,4.592 1.17,5.47 2.343,10.94 3.517,16.408 1.173,-5.47 2.343,-10.94 3.513,-16.408 0.41,-1.907 12.28,-3.95 14.485,-4.592 -2.206,-0.643 -14.074,-2.685 -14.485,-4.592 -1.17,-5.47 -2.34,-10.94 -3.513,-16.408" />
      <path
         style="fill:#ffffff;stroke:#ffffff;stroke-width:0.5"
         inkscape:connector-curvature="0"
         id="path8504"
         d="m 426.2857,302.21935 c -1.17,5.47 -2.344,10.94 -3.517,16.408 -0.408,1.907 -12.276,3.95 -14.483,4.592 2.207,0.643 14.075,2.685 14.483,4.592 1.173,5.47 2.347,10.94 3.517,16.408 1.174,-5.47 2.344,-10.94 3.517,-16.408 0.408,-1.907 12.276,-3.95 14.483,-4.592 -2.207,-0.643 -14.075,-2.685 -14.483,-4.592 -1.173,-5.47 -2.343,-10.94 -3.517,-16.408" />
      <path
         style="fill:#ffffff;stroke:#ffffff;stroke-width:0.5"
         inkscape:connector-curvature="0"
         id="path8506"
         d="m 124.2857,651.21935 -3.516,16.41 c -0.408,1.905 -12.276,3.945 -14.484,4.592 2.208,0.643 14.076,2.683 14.484,4.59 1.172,5.466 2.343,10.94 3.515,16.408 l 3.516,-16.407 c 0.41,-1.908 12.278,-3.948 14.484,-4.59 -2.206,-0.648 -14.075,-2.688 -14.484,-4.592 -1.172,-5.472 -2.343,-10.937 -3.517,-16.41" />
      <path
         style="fill:#ffffff;stroke:#ffffff;stroke-width:0.5"
         inkscape:connector-curvature="0"
         id="path8508"
         d="m 125.2857,593.21935 -3.516,16.408 c -0.408,1.905 -12.276,3.945 -14.484,4.592 2.208,0.643 14.076,2.687 14.484,4.592 l 3.516,16.408 c 1.173,-5.47 2.344,-10.94 3.518,-16.408 0.407,-1.905 12.276,-3.95 14.482,-4.592 -2.206,-0.647 -14.075,-2.687 -14.482,-4.592 -1.174,-5.47 -2.345,-10.94 -3.52,-16.408" />
      <path
         style="fill:#ffffff;stroke:#ffffff;stroke-width:0.5"
         inkscape:connector-curvature="0"
         id="path8510"
         d="m 125.2857,534.21935 -3.516,16.41 c -0.41,1.904 -12.276,3.946 -14.484,4.59 2.208,0.644 14.075,2.686 14.484,4.592 l 3.516,16.408 c 1.173,-5.47 2.344,-10.938 3.518,-16.408 0.407,-1.906 12.276,-3.948 14.482,-4.59 -2.206,-0.646 -14.075,-2.688 -14.482,-4.593 -1.174,-5.47 -2.345,-10.94 -3.52,-16.41" />
      <path
         style="fill:#ffffff;stroke:#ffffff;stroke-width:0.5"
         inkscape:connector-curvature="0"
         id="path8512"
         d="m 124.2857,763.21935 c -1.17,5.47 -2.343,10.94 -3.514,16.412 -0.408,1.905 -12.278,3.945 -14.486,4.588 2.208,0.643 14.078,2.687 14.486,4.595 1.17,5.466 2.343,10.94 3.515,16.405 1.173,-5.466 2.344,-10.94 3.518,-16.405 0.407,-1.908 12.276,-3.952 14.482,-4.595 -2.206,-0.643 -14.075,-2.683 -14.482,-4.588 -1.174,-5.473 -2.345,-10.943 -3.517,-16.412" />
      <path
         style="fill:#ffffff;stroke:#ffffff;stroke-width:0.5"
         inkscape:connector-curvature="0"
         id="path8514"
         d="m 124.2857,821.21935 c -1.17,5.47 -2.343,10.94 -3.514,16.408 -0.408,1.905 -12.278,3.95 -14.486,4.592 2.208,0.643 14.078,2.683 14.486,4.592 1.17,5.47 2.343,10.94 3.515,16.408 1.173,-5.47 2.344,-10.94 3.518,-16.408 0.407,-1.91 12.276,-3.95 14.482,-4.592 -2.206,-0.643 -14.075,-2.687 -14.482,-4.592 -1.174,-5.47 -2.345,-10.94 -3.517,-16.408" />
      <path
         style="fill:#ffffff;stroke:#ffffff;stroke-width:0.5"
         inkscape:connector-curvature="0"
         id="path8516"
         d="m 124.2857,879.21935 -3.514,16.408 c -0.408,1.905 -12.278,3.95 -14.486,4.588 2.208,0.647 14.078,2.687 14.486,4.592 1.17,5.473 2.343,10.94 3.515,16.412 1.173,-5.473 2.344,-10.94 3.518,-16.412 0.407,-1.905 12.276,-3.945 14.482,-4.592 -2.206,-0.64 -14.075,-2.683 -14.482,-4.588 -1.174,-5.47 -2.345,-10.942 -3.517,-16.408" />
      <path
         style="fill:#ffffff;stroke:#ffffff;stroke-width:0.5"
         inkscape:connector-curvature="0"
         id="path8518"
         d="m 124.2857,709.21935 c -1.17,5.473 -2.343,10.94 -3.514,16.412 -0.408,1.905 -12.278,3.945 -14.486,4.592 2.208,0.64 14.078,2.683 14.486,4.59 1.17,5.467 2.343,10.94 3.515,16.406 1.173,-5.466 2.344,-10.94 3.518,-16.405 0.407,-1.908 12.276,-3.948 14.482,-4.59 -2.206,-0.648 -14.075,-2.688 -14.482,-4.593 -1.174,-5.473 -2.345,-10.94 -3.517,-16.412" />
      <path
         style="fill:#ffffff;stroke:#ffffff;stroke-width:0.5"
         inkscape:connector-curvature="0"
         id="path8520"
         d="m 125.2857,476.21935 -3.517,16.408 c -0.407,1.907 -12.275,3.95 -14.483,4.592 2.208,0.643 14.074,2.687 14.483,4.592 l 3.517,16.408 c 1.172,-5.47 2.343,-10.94 3.517,-16.408 0.407,-1.905 12.275,-3.95 14.483,-4.592 -2.208,-0.643 -14.076,-2.685 -14.483,-4.592 -1.174,-5.47 -2.345,-10.94 -3.517,-16.408" />
      <path
         style="fill:#ffffff;stroke:#ffffff;stroke-width:0.5"
         inkscape:connector-curvature="0"
         id="path8522"
         d="m 124.2857,418.21935 c -1.17,5.47 -2.343,10.94 -3.514,16.41 -0.408,1.906 -12.278,3.946 -14.486,4.59 2.208,0.644 14.078,2.686 14.486,4.592 1.17,5.47 2.343,10.94 3.515,16.408 1.173,-5.47 2.344,-10.938 3.518,-16.408 0.407,-1.906 12.276,-3.948 14.482,-4.59 -2.206,-0.646 -14.075,-2.686 -14.482,-4.593 -1.174,-5.47 -2.345,-10.94 -3.517,-16.41" />
      <path
         style="fill:#ffffff;stroke:#ffffff;stroke-width:0.5"
         inkscape:connector-curvature="0"
         id="path8524"
         d="m 125.2857,360.21935 -3.517,16.41 c -0.407,1.904 -12.275,3.946 -14.483,4.59 2.208,0.644 14.076,2.686 14.483,4.592 l 3.517,16.408 c 1.172,-5.47 2.343,-10.938 3.517,-16.408 0.407,-1.906 12.275,-3.948 14.483,-4.59 -2.208,-0.646 -14.076,-2.688 -14.483,-4.593 -1.174,-5.47 -2.345,-10.94 -3.517,-16.41" />
      <path
         style="fill:#ffffff;stroke:#ffffff;stroke-width:0.5"
         inkscape:connector-curvature="0"
         id="path8526"
         d="m 124.2857,302.21935 c -1.17,5.47 -2.343,10.94 -3.514,16.408 -0.408,1.907 -12.278,3.95 -14.486,4.592 2.208,0.643 14.078,2.685 14.486,4.592 1.17,5.47 2.343,10.94 3.515,16.408 1.173,-5.47 2.344,-10.94 3.518,-16.408 0.407,-1.907 12.276,-3.95 14.482,-4.592 -2.206,-0.643 -14.075,-2.685 -14.482,-4.592 -1.174,-5.47 -2.345,-10.94 -3.517,-16.408" />
      <path
         style="fill:#ffffff;stroke:#ffffff;stroke-width:0.5"
         inkscape:connector-curvature="0"
         id="path8528"
         d="m 175.2857,651.21935 -3.515,16.41 c -0.41,1.905 -12.277,3.945 -14.485,4.592 2.208,0.643 14.076,2.683 14.485,4.59 1.172,5.466 2.343,10.94 3.515,16.408 1.172,-5.47 2.343,-10.942 3.517,-16.407 0.407,-1.908 12.277,-3.948 14.483,-4.59 -2.206,-0.648 -14.076,-2.688 -14.483,-4.592 -1.174,-5.472 -2.345,-10.937 -3.517,-16.41" />
      <path
         style="fill:#ffffff;stroke:#ffffff;stroke-width:0.5"
         inkscape:connector-curvature="0"
         id="path8530"
         d="m 175.2857,593.21935 -3.516,16.408 c -0.41,1.905 -12.276,3.945 -14.484,4.592 2.208,0.643 14.075,2.687 14.484,4.592 l 3.516,16.408 3.516,-16.408 c 0.41,-1.905 12.278,-3.95 14.484,-4.592 -2.206,-0.647 -14.075,-2.687 -14.484,-4.592 -1.172,-5.47 -2.343,-10.94 -3.517,-16.408" />
      <path
         style="fill:#ffffff;stroke:#ffffff;stroke-width:0.5"
         inkscape:connector-curvature="0"
         id="path8532"
         d="m 175.2857,534.21935 -3.515,16.41 c -0.41,1.904 -12.277,3.946 -14.485,4.59 2.208,0.644 14.076,2.686 14.485,4.592 l 3.515,16.408 3.517,-16.408 c 0.41,-1.906 12.275,-3.948 14.483,-4.59 -2.208,-0.646 -14.074,-2.688 -14.483,-4.593 l -3.517,-16.409" />
      <path
         style="fill:#ffffff;stroke:#ffffff;stroke-width:0.5"
         inkscape:connector-curvature="0"
         id="path8534"
         d="m 175.2857,763.21935 -3.517,16.412 c -0.407,1.905 -12.275,3.945 -14.483,4.588 2.208,0.643 14.074,2.687 14.483,4.595 l 3.517,16.405 c 1.172,-5.466 2.343,-10.94 3.515,-16.405 0.41,-1.908 12.277,-3.952 14.485,-4.595 -2.208,-0.643 -14.076,-2.683 -14.485,-4.588 l -3.515,-16.412" />
      <path
         style="fill:#ffffff;stroke:#ffffff;stroke-width:0.5"
         inkscape:connector-curvature="0"
         id="path8536"
         d="m 175.2857,821.21935 -3.517,16.408 c -0.407,1.905 -12.275,3.95 -14.483,4.592 2.208,0.643 14.076,2.683 14.483,4.592 l 3.517,16.408 3.515,-16.408 c 0.41,-1.91 12.277,-3.95 14.485,-4.592 -2.208,-0.643 -14.076,-2.687 -14.485,-4.592 l -3.515,-16.408" />
      <path
         style="fill:#ffffff;stroke:#ffffff;stroke-width:0.5"
         inkscape:connector-curvature="0"
         id="path8538"
         d="m 175.2857,879.21935 -3.517,16.408 c -0.407,1.905 -12.275,3.95 -14.483,4.588 2.208,0.647 14.076,2.687 14.483,4.592 l 3.517,16.412 3.515,-16.412 c 0.41,-1.905 12.277,-3.945 14.485,-4.592 -2.208,-0.64 -14.076,-2.683 -14.485,-4.588 -1.172,-5.47 -2.343,-10.942 -3.515,-16.408" />
      <path
         style="fill:#ffffff;stroke:#ffffff;stroke-width:0.5"
         inkscape:connector-curvature="0"
         id="path8540"
         d="m 175.2857,709.21935 -3.517,16.412 c -0.407,1.905 -12.275,3.945 -14.483,4.592 2.208,0.643 14.076,2.683 14.483,4.59 l 3.517,16.406 c 1.172,-5.466 2.343,-10.94 3.515,-16.405 0.41,-1.908 12.277,-3.952 14.485,-4.59 -2.208,-0.648 -14.076,-2.688 -14.485,-4.593 l -3.515,-16.412" />
      <path
         style="fill:#ffffff;stroke:#ffffff;stroke-width:0.5"
         inkscape:connector-curvature="0"
         id="path8542"
         d="m 175.2857,476.21935 -3.516,16.408 c -0.408,1.907 -12.276,3.95 -14.484,4.592 2.208,0.643 14.076,2.687 14.484,4.592 l 3.516,16.408 3.516,-16.408 c 0.41,-1.905 12.278,-3.95 14.484,-4.592 -2.206,-0.643 -14.075,-2.685 -14.484,-4.592 -1.172,-5.47 -2.343,-10.94 -3.517,-16.408" />
      <path
         style="fill:#ffffff;stroke:#ffffff;stroke-width:0.5"
         inkscape:connector-curvature="0"
         id="path8544"
         d="m 175.2857,418.21935 -3.517,16.41 c -0.407,1.906 -12.275,3.946 -14.483,4.59 2.208,0.644 14.076,2.686 14.483,4.592 l 3.517,16.408 3.515,-16.408 c 0.41,-1.906 12.277,-3.948 14.485,-4.59 -2.208,-0.646 -14.076,-2.686 -14.485,-4.593 l -3.515,-16.409" />
      <path
         style="fill:#ffffff;stroke:#ffffff;stroke-width:0.5"
         inkscape:connector-curvature="0"
         id="path8546"
         d="m 175.2857,360.21935 -3.516,16.41 c -0.408,1.904 -12.276,3.946 -14.484,4.59 2.208,0.644 14.076,2.686 14.484,4.592 l 3.516,16.408 3.516,-16.408 c 0.41,-1.906 12.278,-3.948 14.484,-4.59 -2.206,-0.646 -14.075,-2.688 -14.484,-4.593 -1.172,-5.47 -2.343,-10.94 -3.517,-16.41" />
      <path
         style="fill:#ffffff;stroke:#ffffff;stroke-width:0.5"
         inkscape:connector-curvature="0"
         id="path8548"
         d="m 175.2857,302.21935 -3.517,16.408 c -0.407,1.907 -12.275,3.95 -14.483,4.592 2.208,0.643 14.076,2.685 14.483,4.592 l 3.517,16.408 3.515,-16.408 c 0.41,-1.907 12.277,-3.95 14.485,-4.592 -2.208,-0.643 -14.076,-2.685 -14.485,-4.592 l -3.515,-16.408" />
      <path
         style="fill:none;stroke:#fb0f0c;stroke-width:1.28999996"
         inkscape:connector-curvature="0"
         id="path8550"
         d="m 30.2157,200.15135 c -8.45,0 -5.39,23.118 -5.39,27.735 l 0,777.57305 c 0,6.31 -2.393,19.76 6.91,19.76 l 535.86,0 c 9.87,0 7.943,-10.576 7.943,-17.705 l 0,-776.90505 c 0,-7.356 1.68,-16.99 0,-24.222 0,-10.725 -30.37,-6.236 -36.357,-6.236 l -508.966,0" />
    </g>
  </g>
</svg>
